<svg aria-hidden="true" style="position: absolute; width: 0; height: 0; overflow: hidden;" version="1.1" xmlns="http://www.w3.org/2000/svg" xmlns:xlink="http://www.w3.org/1999/xlink">
<defs>
<symbol id="icon-error" viewBox="0 0 24 24">
<path d="M12.984 12.984v-6h-1.969v6h1.969zM12.984 17.016v-2.016h-1.969v2.016h1.969zM12 2.016q4.125 0 7.055 2.93t2.93 7.055-2.93 7.055-7.055 2.93-7.055-2.93-2.93-7.055 2.93-7.055 7.055-2.93z"></path>
</symbol>
<symbol id="icon-error_outline" viewBox="0 0 24 24">
<path d="M12 20.016q3.281 0 5.648-2.367t2.367-5.648-2.367-5.648-5.648-2.367-5.648 2.367-2.367 5.648 2.367 5.648 5.648 2.367zM12 2.016q4.125 0 7.055 2.93t2.93 7.055-2.93 7.055-7.055 2.93-7.055-2.93-2.93-7.055 2.93-7.055 7.055-2.93zM11.016 6.984h1.969v6h-1.969v-6zM11.016 15h1.969v2.016h-1.969v-2.016z"></path>
</symbol>
<symbol id="icon-warning" viewBox="0 0 24 24">
<path d="M12.984 14.016v-4.031h-1.969v4.031h1.969zM12.984 18v-2.016h-1.969v2.016h1.969zM0.984 21l11.016-18.984 11.016 18.984h-22.031z"></path>
</symbol>
<symbol id="icon-add_alert" viewBox="0 0 24 24">
<path d="M15.984 13.031v-2.016h-3v-3h-1.969v3h-3v2.016h3v3h1.969v-3h3zM18.891 16.828l2.109 2.109v1.078h-18v-1.078l2.109-2.109v-5.813q0-2.25 1.547-4.219t3.75-2.484v-0.703q0-0.656 0.469-1.125t1.125-0.469 1.125 0.469 0.469 1.125v0.703q2.297 0.516 3.797 2.414t1.5 4.289v5.813zM10.031 21h3.938q0 0.797-0.586 1.406t-1.383 0.609-1.383-0.609-0.586-1.406z"></path>
</symbol>
<symbol id="icon-notification_important" viewBox="0 0 24 24">
<path d="M12 21.984q-0.844 0-1.43-0.563t-0.586-1.406h4.031q0 0.797-0.609 1.383t-1.406 0.586zM12.984 12v-3.984h-1.969v3.984h1.969zM12.984 15.984v-1.969h-1.969v1.969h1.969zM18 15.984l2.016 2.016v0.984h-16.031v-0.984l2.016-2.016v-4.969q0-2.344 1.195-4.078t3.305-2.25v-0.703q0-0.609 0.422-1.055t1.078-0.445 1.078 0.445 0.422 1.055v0.703q2.109 0.516 3.305 2.25t1.195 4.078v4.969z"></path>
</symbol>
<symbol id="icon-loop" viewBox="0 0 24 24">
<path d="M12 18v-3l3.984 3.984-3.984 4.031v-3q-3.281 0-5.648-2.367t-2.367-5.648q0-2.344 1.266-4.266l1.453 1.453q-0.703 1.266-0.703 2.813 0 2.484 1.758 4.242t4.242 1.758zM12 3.984q3.281 0 5.648 2.367t2.367 5.648q0 2.344-1.266 4.266l-1.453-1.453q0.703-1.266 0.703-2.813 0-2.484-1.758-4.242t-4.242-1.758v3l-3.984-3.984 3.984-4.031v3z"></path>
</symbol>
<symbol id="icon-library_add" viewBox="0 0 24 24">
<path d="M18.984 11.016v-2.016h-3.984v-3.984h-2.016v3.984h-3.984v2.016h3.984v3.984h2.016v-3.984h3.984zM20.016 2.016q0.797 0 1.383 0.586t0.586 1.383v12q0 0.797-0.586 1.406t-1.383 0.609h-12q-0.797 0-1.406-0.609t-0.609-1.406v-12q0-0.797 0.609-1.383t1.406-0.586h12zM3.984 6v14.016h14.016v1.969h-14.016q-0.797 0-1.383-0.586t-0.586-1.383v-14.016h1.969z"></path>
</symbol>
<symbol id="icon-library_books" viewBox="0 0 24 24">
<path d="M18.984 6.984v-1.969h-9.984v1.969h9.984zM15 15v-2.016h-6v2.016h6zM18.984 11.016v-2.016h-9.984v2.016h9.984zM20.016 2.016q0.797 0 1.383 0.586t0.586 1.383v12q0 0.797-0.586 1.406t-1.383 0.609h-12q-0.797 0-1.406-0.609t-0.609-1.406v-12q0-0.797 0.609-1.383t1.406-0.586h12zM3.984 6v14.016h14.016v1.969h-14.016q-0.797 0-1.383-0.586t-0.586-1.383v-14.016h1.969z"></path>
</symbol>
<symbol id="icon-library_music" viewBox="0 0 24 24">
<path d="M3.984 6v14.016h14.016v1.969h-14.016q-0.797 0-1.383-0.586t-0.586-1.383v-14.016h1.969zM18 6.984v-1.969h-3.984v5.484q-0.656-0.516-1.5-0.516-1.031 0-1.781 0.75t-0.75 1.781 0.75 1.758 1.781 0.727 1.758-0.727 0.727-1.758v-5.531h3zM20.016 2.016q0.797 0 1.383 0.586t0.586 1.383v12q0 0.797-0.586 1.406t-1.383 0.609h-12q-0.797 0-1.406-0.609t-0.609-1.406v-12q0-0.797 0.609-1.383t1.406-0.586h12z"></path>
</symbol>
<symbol id="icon-new_releases" viewBox="0 0 24 24">
<path d="M12.984 12.984v-6h-1.969v6h1.969zM12.984 17.016v-2.016h-1.969v2.016h1.969zM23.016 12l-2.438 2.766 0.328 3.703-3.609 0.797-1.875 3.188-3.422-1.453-3.422 1.453-1.875-3.141-3.609-0.844 0.328-3.703-2.438-2.766 2.438-2.813-0.328-3.656 3.609-0.797 1.875-3.188 3.422 1.453 3.422-1.453 1.875 3.188 3.609 0.797-0.328 3.703z"></path>
</symbol>
<symbol id="icon-not_interested" viewBox="0 0 24 24">
<path d="M18.328 16.922q1.688-2.109 1.688-4.922 0-3.281-2.367-5.648t-5.648-2.367q-1.125 0-2.578 0.492t-2.344 1.195zM12 20.016q1.125 0 2.578-0.492t2.344-1.195l-11.25-11.25q-1.688 2.109-1.688 4.922 0 3.281 2.367 5.648t5.648 2.367zM12 2.016q4.125 0 7.055 2.93t2.93 7.055-2.93 7.055-7.055 2.93-7.055-2.93-2.93-7.055 2.93-7.055 7.055-2.93z"></path>
</symbol>
<symbol id="icon-pause" viewBox="0 0 24 24">
<path d="M14.016 5.016h3.984v13.969h-3.984v-13.969zM6 18.984v-13.969h3.984v13.969h-3.984z"></path>
</symbol>
<symbol id="icon-pause_circle_filled" viewBox="0 0 24 24">
<path d="M15 15.984v-7.969h-2.016v7.969h2.016zM11.016 15.984v-7.969h-2.016v7.969h2.016zM12 2.016q4.125 0 7.055 2.93t2.93 7.055-2.93 7.055-7.055 2.93-7.055-2.93-2.93-7.055 2.93-7.055 7.055-2.93z"></path>
</symbol>
<symbol id="icon-pause_circle_outline" viewBox="0 0 24 24">
<path d="M12.984 15.984v-7.969h2.016v7.969h-2.016zM12 20.016q3.281 0 5.648-2.367t2.367-5.648-2.367-5.648-5.648-2.367-5.648 2.367-2.367 5.648 2.367 5.648 5.648 2.367zM12 2.016q4.125 0 7.055 2.93t2.93 7.055-2.93 7.055-7.055 2.93-7.055-2.93-2.93-7.055 2.93-7.055 7.055-2.93zM9 15.984v-7.969h2.016v7.969h-2.016z"></path>
</symbol>
<symbol id="icon-play_arrow" viewBox="0 0 24 24">
<path d="M8.016 5.016l10.969 6.984-10.969 6.984v-13.969z"></path>
</symbol>
<symbol id="icon-play_circle_filled" viewBox="0 0 24 24">
<path d="M9.984 16.5l6-4.5-6-4.5v9zM12 2.016q4.125 0 7.055 2.93t2.93 7.055-2.93 7.055-7.055 2.93-7.055-2.93-2.93-7.055 2.93-7.055 7.055-2.93z"></path>
</symbol>
<symbol id="icon-play_circle_outline" viewBox="0 0 24 24">
<path d="M12 20.016q3.281 0 5.648-2.367t2.367-5.648-2.367-5.648-5.648-2.367-5.648 2.367-2.367 5.648 2.367 5.648 5.648 2.367zM12 2.016q4.125 0 7.055 2.93t2.93 7.055-2.93 7.055-7.055 2.93-7.055-2.93-2.93-7.055 2.93-7.055 7.055-2.93zM9.984 16.5v-9l6 4.5z"></path>
</symbol>
<symbol id="icon-radio" viewBox="0 0 24 24">
<path d="M20.016 12v-3.984h-16.031v3.984h12v-2.016h2.016v2.016h2.016zM6.984 20.016q1.219 0 2.109-0.891t0.891-2.109-0.891-2.109-2.109-0.891-2.109 0.891-0.891 2.109 0.891 2.109 2.109 0.891zM3.234 6.141l12.656-5.156 0.656 1.688-8.25 3.328h11.719q0.844 0 1.406 0.586t0.563 1.43v12q0 0.844-0.563 1.406t-1.406 0.563h-16.031q-0.844 0-1.406-0.563t-0.563-1.406v-12q0-1.406 1.219-1.875z"></path>
</symbol>
<symbol id="icon-recent_actors" viewBox="0 0 24 24">
<path d="M12.516 17.016v-0.75q0-1.031-1.547-1.641t-2.953-0.609-2.953 0.609-1.547 1.641v0.75h9zM8.016 7.734q-0.891 0-1.57 0.68t-0.68 1.57 0.68 1.57 1.57 0.68 1.57-0.68 0.68-1.57-0.68-1.57-1.57-0.68zM14.016 5.016q0.422 0 0.703 0.281t0.281 0.703v12q0 0.422-0.281 0.703t-0.703 0.281h-12q-0.422 0-0.727-0.281t-0.305-0.703v-12q0-0.422 0.305-0.703t0.727-0.281h12zM17.016 18.984v-13.969h1.969v13.969h-1.969zM21 5.016h2.016v13.969h-2.016v-13.969z"></path>
</symbol>
<symbol id="icon-replay" viewBox="0 0 24 24">
<path d="M12 5.016q3.328 0 5.672 2.344t2.344 5.625q0 3.328-2.367 5.672t-5.648 2.344-5.648-2.344-2.367-5.672h2.016q0 2.484 1.758 4.242t4.242 1.758 4.242-1.758 1.758-4.242-1.758-4.242-4.242-1.758v4.031l-5.016-5.016 5.016-5.016v4.031z"></path>
</symbol>
<symbol id="icon-subtitles" viewBox="0 0 24 24">
<path d="M20.016 14.016v-2.016h-10.031v2.016h10.031zM20.016 18v-2.016h-4.031v2.016h4.031zM14.016 18v-2.016h-10.031v2.016h10.031zM3.984 12v2.016h4.031v-2.016h-4.031zM20.016 3.984q0.797 0 1.383 0.609t0.586 1.406v12q0 0.797-0.586 1.406t-1.383 0.609h-16.031q-0.797 0-1.383-0.609t-0.586-1.406v-12q0-0.797 0.586-1.406t1.383-0.609h16.031z"></path>
</symbol>
<symbol id="icon-web" viewBox="0 0 24 24">
<path d="M20.016 18v-9h-4.031v9h4.031zM15 12.984v-3.984h-11.016v3.984h11.016zM15 18v-3.984h-11.016v3.984h11.016zM20.016 3.984q0.797 0 1.383 0.609t0.586 1.406v12q0 0.797-0.586 1.406t-1.383 0.609h-16.031q-0.797 0-1.383-0.609t-0.586-1.406v-12q0-0.797 0.586-1.406t1.383-0.609h16.031z"></path>
</symbol>
<symbol id="icon-web_asset" viewBox="0 0 24 24">
<path d="M18.984 18v-9.984h-13.969v9.984h13.969zM18.984 3.984q0.844 0 1.43 0.586t0.586 1.43v12q0 0.797-0.609 1.406t-1.406 0.609h-13.969q-0.844 0-1.43-0.586t-0.586-1.43v-12q0-0.844 0.586-1.43t1.43-0.586h13.969z"></path>
</symbol>
<symbol id="icon-featured_play_list" viewBox="0 0 24 24">
<path d="M12 6.984v-1.969h-9v1.969h9zM12 11.016v-2.016h-9v2.016h9zM21 3q0.797 0 1.406 0.609t0.609 1.406v13.969q0 0.797-0.609 1.406t-1.406 0.609h-18q-0.797 0-1.406-0.609t-0.609-1.406v-13.969q0-0.797 0.609-1.406t1.406-0.609h18z"></path>
</symbol>
<symbol id="icon-call" viewBox="0 0 24 24">
<path d="M20.016 15.375q0.422 0 0.703 0.281t0.281 0.703v3.469q0 1.172-0.984 1.172-6.984 0-12-5.016t-5.016-12q0-0.984 1.172-0.984h3.469q0.422 0 0.703 0.281t0.281 0.703q0 1.828 0.563 3.516 0.188 0.609-0.234 1.031l-1.922 1.688q2.156 4.5 6.891 6.797l1.547-1.969q0.281-0.281 0.703-0.281 0.234 0 0.328 0.047 1.688 0.563 3.516 0.563z"></path>
</symbol>
<symbol id="icon-call_end" viewBox="0 0 24 24">
<path d="M12 9q-2.438 0-4.594 0.703v3.094q0 0.703-0.563 0.938-1.5 0.703-2.672 1.828-0.281 0.281-0.703 0.281t-0.703-0.281l-2.484-2.484q-0.281-0.281-0.281-0.703t0.281-0.703q4.922-4.688 11.719-4.688t11.719 4.688q0.281 0.281 0.281 0.703t-0.281 0.703l-2.484 2.484q-0.281 0.281-0.703 0.281t-0.703-0.281q-1.031-0.984-2.672-1.828-0.563-0.234-0.563-0.891v-3.094q-2.344-0.75-4.594-0.75z"></path>
</symbol>
<symbol id="icon-email" viewBox="0 0 24 24">
<path d="M20.016 8.016v-2.016l-8.016 5.016-8.016-5.016v2.016l8.016 4.969zM20.016 3.984q0.797 0 1.383 0.609t0.586 1.406v12q0 0.797-0.586 1.406t-1.383 0.609h-16.031q-0.797 0-1.383-0.609t-0.586-1.406v-12q0-0.797 0.586-1.406t1.383-0.609h16.031z"></path>
</symbol>
<symbol id="icon-location_off" viewBox="0 0 24 24">
<path d="M11.719 11.484q5.109 5.063 8.297 8.25l-1.266 1.266-3.375-3.328q-0.75 1.125-1.594 2.203t-1.313 1.594l-0.469 0.516q-0.281-0.328-0.75-0.867t-1.688-2.156-2.133-3.141-1.664-3.445-0.75-3.375q0-0.516 0.188-1.547l-3.188-3.188 1.266-1.266 8.344 8.344zM12 6.516q-1.078 0-1.828 0.844l-3.234-3.188q0.844-0.891 2.344-1.523t2.719-0.633q2.906 0 4.945 2.039t2.039 4.945q0 2.25-1.688 5.484l-3.609-3.656q0.797-0.703 0.797-1.828 0-1.031-0.727-1.758t-1.758-0.727z"></path>
</symbol>
<symbol id="icon-location_on" viewBox="0 0 24 24">
<path d="M12 11.484q1.031 0 1.758-0.727t0.727-1.758-0.727-1.758-1.758-0.727-1.758 0.727-0.727 1.758 0.727 1.758 1.758 0.727zM12 2.016q2.906 0 4.945 2.039t2.039 4.945q0 1.453-0.727 3.328t-1.758 3.516-2.039 3.070-1.711 2.273l-0.75 0.797q-0.281-0.328-0.75-0.867t-1.688-2.156-2.133-3.141-1.664-3.445-0.75-3.375q0-2.906 2.039-4.945t4.945-2.039z"></path>
</symbol>
<symbol id="icon-message" viewBox="0 0 24 24">
<path d="M18 8.016v-2.016h-12v2.016h12zM18 11.016v-2.016h-12v2.016h12zM18 14.016v-2.016h-12v2.016h12zM20.016 2.016q0.797 0 1.383 0.586t0.586 1.383v12q0 0.797-0.586 1.406t-1.383 0.609h-14.016l-3.984 3.984v-18q0-0.797 0.586-1.383t1.383-0.586h16.031z"></path>
</symbol>
<symbol id="icon-chat_bubble" viewBox="0 0 24 24">
<path d="M20.016 2.016q0.797 0 1.383 0.586t0.586 1.383v12q0 0.797-0.586 1.406t-1.383 0.609h-14.016l-3.984 3.984v-18q0-0.797 0.586-1.383t1.383-0.586h16.031z"></path>
</symbol>
<symbol id="icon-chat_bubble_outline" viewBox="0 0 24 24">
<path d="M20.016 15.984v-12h-16.031v14.016l2.016-2.016h14.016zM20.016 2.016q0.797 0 1.383 0.586t0.586 1.383v12q0 0.797-0.586 1.406t-1.383 0.609h-14.016l-3.984 3.984v-18q0-0.797 0.586-1.383t1.383-0.586h16.031z"></path>
</symbol>
<symbol id="icon-speaker_phone" viewBox="0 0 24 24">
<path d="M15 20.016v-8.016h-6v8.016h6zM14.859 10.031q0.469 0 0.797 0.328t0.328 0.797v9.703q0 0.469-0.328 0.797t-0.797 0.328h-5.719q-0.469 0-0.797-0.328t-0.328-0.797v-9.703q0-0.469 0.328-0.82t0.797-0.352zM12 0.984q1.875 0 4.125 0.938t3.609 2.297l-1.406 1.406q-2.625-2.625-6.328-2.625t-6.328 2.625l-1.406-1.406q3.234-3.234 7.734-3.234zM6.984 7.078q2.063-2.063 5.016-2.063t5.016 2.063l-1.453 1.406q-1.453-1.453-3.563-1.453t-3.563 1.453z"></path>
</symbol>
<symbol id="icon-stay_current_landscape" viewBox="0 0 24 24">
<path d="M18.984 6.984h-13.969v10.031h13.969v-10.031zM1.031 6.984q0-0.797 0.586-1.383t1.383-0.586h18q0.797 0 1.406 0.586t0.609 1.383v10.031q0 0.797-0.609 1.383t-1.406 0.586h-18q-0.797 0-1.406-0.586t-0.609-1.383z"></path>
</symbol>
<symbol id="icon-stay_current_portrait" viewBox="0 0 24 24">
<path d="M17.016 18.984v-13.969h-10.031v13.969h10.031zM17.016 1.031q0.797 0 1.383 0.586t0.586 1.383v18q0 0.797-0.586 1.406t-1.383 0.609h-10.031q-0.797 0-1.383-0.609t-0.586-1.406v-18q0-0.797 0.586-1.406t1.383-0.609z"></path>
</symbol>
<symbol id="icon-textsms" viewBox="0 0 24 24">
<path d="M17.016 11.016v-2.016h-2.016v2.016h2.016zM12.984 11.016v-2.016h-1.969v2.016h1.969zM9 11.016v-2.016h-2.016v2.016h2.016zM20.016 2.016q0.797 0 1.383 0.586t0.586 1.383v12q0 0.797-0.586 1.406t-1.383 0.609h-14.016l-3.984 3.984v-18q0-0.797 0.586-1.383t1.383-0.586h16.031z"></path>
</symbol>
<symbol id="icon-vpn_key" viewBox="0 0 24 24">
<path d="M6.984 14.016q0.797 0 1.406-0.609t0.609-1.406-0.609-1.406-1.406-0.609-1.383 0.609-0.586 1.406 0.586 1.406 1.383 0.609zM12.656 9.984h10.359v4.031h-2.016v3.984h-3.984v-3.984h-4.359q-0.609 1.641-2.273 2.813t-3.398 1.172q-2.484 0-4.242-1.758t-1.758-4.242 1.758-4.242 4.242-1.758q1.734 0 3.398 1.172t2.273 2.813z"></path>
</symbol>
<symbol id="icon-phonelink_lock" viewBox="0 0 24 24">
<path d="M9.516 11.016v-1.5q0-0.563-0.445-0.938t-1.055-0.375-1.055 0.375-0.445 0.938v1.5h3zM10.781 11.016q0.469 0 0.844 0.375t0.375 0.891v3.516q0 0.469-0.398 0.844t-0.914 0.375h-5.484q-0.469 0-0.844-0.398t-0.375-0.914v-3.516q0-0.469 0.375-0.82t0.844-0.352v-1.5q0-1.031 0.867-1.781t1.945-0.75 1.922 0.75 0.844 1.781v1.5zM18.984 0.984q0.797 0 1.406 0.609t0.609 1.406v18q0 0.797-0.609 1.406t-1.406 0.609h-9.984q-0.797 0-1.406-0.609t-0.609-1.406v-3h2.016v2.016h9.984v-16.031h-9.984v2.016h-2.016v-3q0-0.797 0.609-1.406t1.406-0.609h9.984z"></path>
</symbol>
<symbol id="icon-phonelink_ring" viewBox="0 0 24 24">
<path d="M14.016 20.016v-16.031h-10.031v16.031h10.031zM14.016 0.984q0.797 0 1.383 0.609t0.586 1.406v18q0 0.797-0.586 1.406t-1.383 0.609h-10.031q-0.797 0-1.383-0.609t-0.586-1.406v-18q0-0.797 0.586-1.406t1.383-0.609h10.031zM18 9.797q0.938 0.984 0.938 2.203t-0.938 2.109l-0.984-1.031q0.844-1.172 0-2.297zM20.109 7.688q1.875 1.781 1.875 4.289t-1.875 4.242l-1.031-1.031q1.359-1.453 1.359-3.305t-1.359-3.164z"></path>
</symbol>
<symbol id="icon-phonelink_setup" viewBox="0 0 24 24">
<path d="M18 1.031q0.797 0 1.406 0.586t0.609 1.383v18q0 0.797-0.609 1.406t-1.406 0.609h-9.984q-0.797 0-1.406-0.609t-0.609-1.406v-3h2.016v0.984h9.984v-13.969h-9.984v0.984h-2.016v-3q0-0.797 0.609-1.406t1.406-0.609zM6.984 13.734q0.75 0 1.289-0.492t0.539-1.242-0.539-1.242-1.289-0.492-1.266 0.492-0.516 1.242 0.516 1.242 1.266 0.492zM10.828 12.469l1.078 0.844q0.188 0.188 0.094 0.328l-1.031 1.734q-0.094 0.188-0.328 0.094l-1.266-0.469q-0.375 0.234-0.891 0.469l-0.188 1.313q0 0.234-0.234 0.234h-2.063q-0.281 0-0.281-0.234l-0.188-1.313q-0.516-0.234-0.891-0.469l-1.266 0.469q-0.234 0.094-0.328-0.094l-0.984-1.734q-0.047-0.047-0.023-0.164t0.070-0.164l1.078-0.844q0-0.047-0.023-0.211t-0.023-0.258 0.023-0.234 0.023-0.234l-1.078-0.844q-0.141-0.141-0.094-0.328l1.031-1.734q0.094-0.188 0.328-0.094l1.266 0.469q0.375-0.234 0.891-0.469l0.188-1.313q0-0.234 0.234-0.234h2.063q0.234 0 0.234 0.234l0.234 1.313q0.188 0.094 0.844 0.516l1.313-0.516q0.188-0.094 0.281 0.094l1.031 1.734q0.047 0.047 0.023 0.164t-0.070 0.164l-1.078 0.844q0 0.047 0.023 0.211t0.023 0.258-0.023 0.258-0.023 0.211z"></path>
</symbol>
<symbol id="icon-import_contacts" viewBox="0 0 24 24">
<path d="M21 18.516v-11.531q-1.547-0.469-3.516-0.469-3.047 0-5.484 1.5v11.484q2.438-1.5 5.484-1.5 1.828 0 3.516 0.516zM17.484 4.5q3.563 0 5.531 1.5v14.578q0 0.188-0.164 0.352t-0.352 0.164q-0.141 0-0.234-0.047-1.922-1.031-4.781-1.031-3.047 0-5.484 1.5-2.016-1.5-5.484-1.5-2.531 0-4.781 1.078-0.047 0-0.117 0.023t-0.117 0.023q-0.188 0-0.352-0.141t-0.164-0.328v-14.672q2.016-1.5 5.531-1.5 3.469 0 5.484 1.5 2.016-1.5 5.484-1.5z"></path>
</symbol>
<symbol id="icon-mail_outline" viewBox="0 0 24 24">
<path d="M12 11.016l8.016-5.016h-16.031zM20.016 18v-9.984l-8.016 4.969-8.016-4.969v9.984h16.031zM20.016 3.984q0.797 0 1.383 0.609t0.586 1.406v12q0 0.797-0.586 1.406t-1.383 0.609h-16.031q-0.797 0-1.383-0.609t-0.586-1.406v-12q0-0.797 0.586-1.406t1.383-0.609h16.031z"></path>
</symbol>
<symbol id="icon-rss_feed" viewBox="0 0 24 24">
<path d="M3.984 10.078q4.125 0 7.031 2.906t2.906 7.031h-2.859q0-2.906-2.086-4.992t-4.992-2.086v-2.859zM3.984 4.453q6.422 0 10.992 4.57t4.57 10.992h-2.813q0-5.297-3.727-9.023t-9.023-3.727v-2.813zM3.984 17.813q0-0.891 0.633-1.523t1.57-0.633 1.547 0.609 0.609 1.547-0.633 1.57-1.523 0.633q-0.938 0-1.57-0.633t-0.633-1.57z"></path>
</symbol>
<symbol id="icon-alternate_email" viewBox="0 0 24 24">
<path d="M12 15q1.219 0 2.109-0.891t0.891-2.109-0.891-2.109-2.109-0.891-2.109 0.891-0.891 2.109 0.891 2.109 2.109 0.891zM12 2.016q4.125 0 7.055 2.93t2.93 7.055v1.453q0 1.5-1.008 2.531t-2.461 1.031q-1.828 0-2.953-1.5-1.5 1.5-3.563 1.5t-3.539-1.477-1.477-3.539 1.477-3.539 3.539-1.477 3.539 1.477 1.477 3.539v1.453q0 0.609 0.445 1.078t1.055 0.469 1.055-0.469 0.445-1.078v-1.453q0-3.281-2.367-5.648t-5.648-2.367-5.648 2.367-2.367 5.648 2.367 5.648 5.648 2.367h5.016v1.969h-5.016q-4.125 0-7.055-2.93t-2.93-7.055 2.93-7.055 7.055-2.93z"></path>
</symbol>
<symbol id="icon-sentiment_satisfied_alt" viewBox="0 0 24 24">
<path d="M12 17.484q-1.734 0-3.117-0.961t-1.992-2.508h1.641q1.172 1.969 3.469 1.969t3.469-1.969h1.641q-0.609 1.547-1.992 2.508t-3.117 0.961zM12 20.016q3.281 0 5.648-2.367t2.367-5.648-2.367-5.648-5.648-2.367-5.648 2.367-2.367 5.648 2.367 5.648 5.648 2.367zM12 2.016q4.125 0 7.055 2.93t2.93 7.055-2.93 7.055-7.055 2.93-7.055-2.93-2.93-7.055 2.93-7.055 7.055-2.93zM8.484 11.016q-0.609 0-1.055-0.445t-0.445-1.055 0.445-1.055 1.055-0.445 1.055 0.445 0.445 1.055-0.445 1.055-1.055 0.445zM15.516 11.016q-0.609 0-1.055-0.445t-0.445-1.055 0.445-1.055 1.055-0.445 1.055 0.445 0.445 1.055-0.445 1.055-1.055 0.445z"></path>
</symbol>
<symbol id="icon-add" viewBox="0 0 24 24">
<path d="M18.984 12.984h-6v6h-1.969v-6h-6v-1.969h6v-6h1.969v6h6v1.969z"></path>
</symbol>
<symbol id="icon-add_box" viewBox="0 0 24 24">
<path d="M17.016 12.984v-1.969h-4.031v-4.031h-1.969v4.031h-4.031v1.969h4.031v4.031h1.969v-4.031h4.031zM18.984 3q0.797 0 1.406 0.609t0.609 1.406v13.969q0 0.797-0.609 1.406t-1.406 0.609h-13.969q-0.844 0-1.43-0.586t-0.586-1.43v-13.969q0-0.844 0.586-1.43t1.43-0.586h13.969z"></path>
</symbol>
<symbol id="icon-add_circle" viewBox="0 0 24 24">
<path d="M17.016 12.984v-1.969h-4.031v-4.031h-1.969v4.031h-4.031v1.969h4.031v4.031h1.969v-4.031h4.031zM12 2.016q4.125 0 7.055 2.93t2.93 7.055-2.93 7.055-7.055 2.93-7.055-2.93-2.93-7.055 2.93-7.055 7.055-2.93z"></path>
</symbol>
<symbol id="icon-add_circle_outline" viewBox="0 0 24 24">
<path d="M12 20.016q3.281 0 5.648-2.367t2.367-5.648-2.367-5.648-5.648-2.367-5.648 2.367-2.367 5.648 2.367 5.648 5.648 2.367zM12 2.016q4.125 0 7.055 2.93t2.93 7.055-2.93 7.055-7.055 2.93-7.055-2.93-2.93-7.055 2.93-7.055 7.055-2.93zM12.984 6.984v4.031h4.031v1.969h-4.031v4.031h-1.969v-4.031h-4.031v-1.969h4.031v-4.031h1.969z"></path>
</symbol>
<symbol id="icon-block" viewBox="0 0 24 24">
<path d="M12 20.016q3.281 0 5.648-2.367t2.367-5.648q0-1.125-0.492-2.578t-1.195-2.344l-11.25 11.25q2.109 1.688 4.922 1.688zM3.984 12q0 1.125 0.492 2.578t1.195 2.344l11.25-11.25q-2.109-1.688-4.922-1.688-3.281 0-5.648 2.367t-2.367 5.648zM12 2.016q4.125 0 7.055 2.93t2.93 7.055-2.93 7.055-7.055 2.93-7.055-2.93-2.93-7.055 2.93-7.055 7.055-2.93z"></path>
</symbol>
<symbol id="icon-clear" viewBox="0 0 24 24">
<path d="M18.984 6.422l-5.578 5.578 5.578 5.578-1.406 1.406-5.578-5.578-5.578 5.578-1.406-1.406 5.578-5.578-5.578-5.578 1.406-1.406 5.578 5.578 5.578-5.578z"></path>
</symbol>
<symbol id="icon-content_copy" viewBox="0 0 24 24">
<path d="M18.984 21v-14.016h-10.969v14.016h10.969zM18.984 5.016q0.797 0 1.406 0.586t0.609 1.383v14.016q0 0.797-0.609 1.406t-1.406 0.609h-10.969q-0.797 0-1.406-0.609t-0.609-1.406v-14.016q0-0.797 0.609-1.383t1.406-0.586h10.969zM15.984 0.984v2.016h-12v14.016h-1.969v-14.016q0-0.797 0.586-1.406t1.383-0.609h12z"></path>
</symbol>
<symbol id="icon-content_cut" viewBox="0 0 24 24">
<path d="M18.984 3h3v0.984l-6.984 7.031-2.016-2.016zM12 12.516q0.516 0 0.516-0.516t-0.516-0.516-0.516 0.516 0.516 0.516zM6 20.016q0.797 0 1.406-0.586t0.609-1.43-0.609-1.43-1.406-0.586-1.406 0.586-0.609 1.43 0.609 1.43 1.406 0.586zM6 8.016q0.797 0 1.406-0.586t0.609-1.43-0.609-1.43-1.406-0.586-1.406 0.586-0.609 1.43 0.609 1.43 1.406 0.586zM9.656 7.641l12.328 12.375v0.984h-3l-6.984-6.984-2.344 2.344q0.328 0.703 0.328 1.641 0 1.641-1.172 2.813t-2.813 1.172-2.813-1.172-1.172-2.813 1.172-2.813 2.813-1.172q0.938 0 1.641 0.328l2.344-2.344-2.344-2.344q-0.703 0.328-1.641 0.328-1.641 0-2.813-1.172t-1.172-2.813 1.172-2.813 2.813-1.172 2.813 1.172 1.172 2.813q0 0.938-0.328 1.641z"></path>
</symbol>
<symbol id="icon-create" viewBox="0 0 24 24">
<path d="M20.719 7.031l-1.828 1.828-3.75-3.75 1.828-1.828q0.281-0.281 0.703-0.281t0.703 0.281l2.344 2.344q0.281 0.281 0.281 0.703t-0.281 0.703zM3 17.25l11.063-11.063 3.75 3.75-11.063 11.063h-3.75v-3.75z"></path>
</symbol>
<symbol id="icon-drafts" viewBox="0 0 24 24">
<path d="M12 12.984l8.25-5.156-8.25-4.828-8.25 4.828zM21.984 8.016v9.984q0 0.797-0.586 1.406t-1.383 0.609h-16.031q-0.797 0-1.383-0.609t-0.586-1.406v-9.984q0-1.172 0.938-1.734l9.047-5.297 9.047 5.297q0.938 0.563 0.938 1.734z"></path>
</symbol>
<symbol id="icon-flag" viewBox="0 0 24 24">
<path d="M14.391 6h5.625v9.984h-7.031l-0.375-1.969h-5.625v6.984h-1.969v-17.016h9z"></path>
</symbol>
<symbol id="icon-link" viewBox="0 0 24 24">
<path d="M17.016 6.984q2.063 0 3.516 1.477t1.453 3.539-1.453 3.539-3.516 1.477h-4.031v-1.922h4.031q1.266 0 2.18-0.914t0.914-2.18-0.914-2.18-2.18-0.914h-4.031v-1.922h4.031zM8.016 12.984v-1.969h7.969v1.969h-7.969zM3.891 12q0 1.266 0.914 2.18t2.18 0.914h4.031v1.922h-4.031q-2.063 0-3.516-1.477t-1.453-3.539 1.453-3.539 3.516-1.477h4.031v1.922h-4.031q-1.266 0-2.18 0.914t-0.914 2.18z"></path>
</symbol>
<symbol id="icon-remove_circle" viewBox="0 0 24 24">
<path d="M17.016 12.984v-1.969h-10.031v1.969h10.031zM12 2.016q4.125 0 7.055 2.93t2.93 7.055-2.93 7.055-7.055 2.93-7.055-2.93-2.93-7.055 2.93-7.055 7.055-2.93z"></path>
</symbol>
<symbol id="icon-remove_circle_outline" viewBox="0 0 24 24">
<path d="M12 20.016q3.281 0 5.648-2.367t2.367-5.648-2.367-5.648-5.648-2.367-5.648 2.367-2.367 5.648 2.367 5.648 5.648 2.367zM12 2.016q4.125 0 7.055 2.93t2.93 7.055-2.93 7.055-7.055 2.93-7.055-2.93-2.93-7.055 2.93-7.055 7.055-2.93zM6.984 11.016h10.031v1.969h-10.031v-1.969z"></path>
</symbol>
<symbol id="icon-reply" viewBox="0 0 24 24">
<path d="M9.984 9q4.875 0.703 7.523 3.727t3.492 7.289q-3.609-5.109-11.016-5.109v4.078l-6.984-6.984 6.984-6.984v3.984z"></path>
</symbol>
<symbol id="icon-reply_all" viewBox="0 0 24 24">
<path d="M12.984 9q4.875 0.703 7.523 3.727t3.492 7.289q-3.609-5.109-11.016-5.109v4.078l-6.984-6.984 6.984-6.984v3.984zM6.984 8.016l-3.984 3.984 3.984 3.984v3l-6.984-6.984 6.984-6.984v3z"></path>
</symbol>
<symbol id="icon-save" viewBox="0 0 24 24">
<path d="M15 9v-3.984h-9.984v3.984h9.984zM12 18.984q1.219 0 2.109-0.891t0.891-2.109-0.891-2.109-2.109-0.891-2.109 0.891-0.891 2.109 0.891 2.109 2.109 0.891zM17.016 3l3.984 3.984v12q0 0.797-0.609 1.406t-1.406 0.609h-13.969q-0.844 0-1.43-0.586t-0.586-1.43v-13.969q0-0.844 0.586-1.43t1.43-0.586h12z"></path>
</symbol>
<symbol id="icon-send" viewBox="0 0 24 24">
<path d="M2.016 21v-6.984l15-2.016-15-2.016v-6.984l21 9z"></path>
</symbol>
<symbol id="icon-move_to_inbox" viewBox="0 0 24 24">
<path d="M15.984 9.984l-3.984 4.031-3.984-4.031h1.969v-3h4.031v3h1.969zM18.984 15v-9.984h-14.016v9.984h4.031q0 1.219 0.891 2.109t2.109 0.891 2.109-0.891 0.891-2.109h3.984zM18.984 3q0.797 0 1.406 0.609t0.609 1.406v13.969q0 0.797-0.609 1.406t-1.406 0.609h-14.016q-0.844 0-1.406-0.586t-0.563-1.43v-13.969q0-0.844 0.563-1.43t1.406-0.586h14.016z"></path>
</symbol>
<symbol id="icon-unarchive" viewBox="0 0 24 24">
<path d="M5.109 5.016h13.781l-0.938-1.031h-12zM12 9.516l-5.484 5.484h3.469v2.016h4.031v-2.016h3.469zM20.531 5.203q0.469 0.563 0.469 1.313v12.469q0 0.797-0.609 1.406t-1.406 0.609h-13.969q-0.844 0-1.43-0.586t-0.586-1.43v-12.469q0-0.75 0.469-1.313l1.359-1.641q0.469-0.563 1.172-0.563h12q0.703 0 1.172 0.563z"></path>
</symbol>
<symbol id="icon-airplanemode_on" viewBox="0 0 24 24">
<path d="M21 15.984l-8.016-2.484v5.484l2.016 1.5v1.5l-3.516-0.984-3.469 0.984v-1.5l1.969-1.5v-5.484l-7.969 2.484v-1.969l7.969-5.016v-5.484q0-0.609 0.445-1.055t1.055-0.445 1.055 0.445 0.445 1.055v5.484l8.016 5.016v1.969z"></path>
</symbol>
<symbol id="icon-battery_alert" viewBox="0 0 24 24">
<path d="M12.984 14.016v-5.016h-1.969v5.016h1.969zM12.984 18v-2.016h-1.969v2.016h1.969zM15.656 3.984q0.563 0 0.961 0.398t0.398 0.961v15.328q0 0.563-0.398 0.938t-0.961 0.375h-7.313q-0.563 0-0.961-0.375t-0.398-0.938v-15.328q0-0.563 0.398-0.961t0.961-0.398h1.641v-1.969h4.031v1.969h1.641z"></path>
</symbol>
<symbol id="icon-battery_charging_full" viewBox="0 0 24 24">
<path d="M11.016 20.016l3.984-7.5h-2.016v-5.531l-3.984 7.5h2.016v5.531zM15.656 3.984q0.563 0 0.961 0.398t0.398 0.961v15.328q0 0.563-0.398 0.938t-0.961 0.375h-7.313q-0.563 0-0.961-0.375t-0.398-0.938v-15.328q0-0.563 0.398-0.961t0.961-0.398h1.641v-1.969h4.031v1.969h1.641z"></path>
</symbol>
<symbol id="icon-battery_full" viewBox="0 0 24 24">
<path d="M15.656 3.984q0.563 0 0.961 0.398t0.398 0.961v15.328q0 0.563-0.398 0.938t-0.961 0.375h-7.313q-0.563 0-0.961-0.375t-0.398-0.938v-15.328q0-0.563 0.398-0.961t0.961-0.398h1.641v-1.969h4.031v1.969h1.641z"></path>
</symbol>
<symbol id="icon-battery_unknown" viewBox="0 0 24 24">
<path d="M14.297 12.703q0.703-0.703 0.703-1.688 0-1.219-0.891-2.109t-2.109-0.891-2.109 0.891-0.891 2.109h1.5q0-0.609 0.422-1.055t1.078-0.445 1.078 0.445 0.422 1.055-0.422 1.031l-0.938 0.938q-0.938 0.938-0.938 2.016h1.594q0-0.75 0.844-1.594zM12.938 17.953v-1.922h-1.875v1.922h1.875zM15.656 3.984q0.563 0 0.961 0.398t0.398 0.961v15.328q0 0.563-0.398 0.938t-0.961 0.375h-7.313q-0.563 0-0.961-0.375t-0.398-0.938v-15.328q0-0.563 0.398-0.961t0.961-0.398h1.641v-1.969h4.031v1.969h1.641z"></path>
</symbol>
<symbol id="icon-bluetooth" viewBox="0 0 24 24">
<path d="M14.859 16.313l-1.875-1.922v3.797zM12.984 5.813v3.797l1.875-1.922zM17.719 7.688l-4.313 4.313 4.313 4.313-5.719 5.672h-0.984v-7.594l-4.594 4.594-1.406-1.406 5.578-5.578-5.578-5.578 1.406-1.406 4.594 4.594v-7.594h0.984z"></path>
</symbol>
<symbol id="icon-bluetooth_connected" viewBox="0 0 24 24">
<path d="M18.984 9.984l2.016 2.016-2.016 2.016-1.969-2.016zM14.859 16.313l-1.875-1.922v3.797zM12.984 5.813v3.797l1.875-1.922zM17.719 7.688l-4.313 4.313 4.313 4.313-5.719 5.672h-0.984v-7.594l-4.594 4.594-1.406-1.406 5.578-5.578-5.578-5.578 1.406-1.406 4.594 4.594v-7.594h0.984zM6.984 12l-1.969 2.016-2.016-2.016 2.016-2.016z"></path>
</symbol>
<symbol id="icon-bluetooth_disabled" viewBox="0 0 24 24">
<path d="M12.984 18.188l1.875-1.875-1.875-1.922v3.797zM5.391 3.984l14.625 14.625-1.406 1.406-2.297-2.297-4.313 4.266h-0.984v-7.594l-4.594 4.594-1.406-1.406 5.578-5.578-6.609-6.609zM12.984 5.813v3.234l-1.969-2.016v-5.016h0.984l5.719 5.672-3.047 3.047-1.406-1.406 1.594-1.641z"></path>
</symbol>
<symbol id="icon-bluetooth_searching" viewBox="0 0 24 24">
<path d="M12.891 16.313l-1.875-1.922v3.797zM11.016 5.813v3.797l1.875-1.922zM15.703 7.688l-4.313 4.313 4.313 4.313-5.719 5.672h-0.984v-7.594l-4.594 4.594-1.406-1.406 5.578-5.578-5.578-5.578 1.406-1.406 4.594 4.594v-7.594h0.984zM19.547 6.703q1.453 2.344 1.453 5.203 0 2.813-1.547 5.297l-1.172-1.172q0.984-1.969 0.984-4.031t-0.984-4.031zM14.25 12l2.297-2.297q0.469 1.172 0.469 2.297 0 1.172-0.469 2.344z"></path>
</symbol>
<symbol id="icon-dvr" viewBox="0 0 24 24">
<path d="M6.984 12v2.016h-1.969v-2.016h1.969zM6.984 8.016v1.969h-1.969v-1.969h1.969zM18.984 12v2.016h-10.969v-2.016h10.969zM18.984 8.016v1.969h-10.969v-1.969h10.969zM21 17.016v-12h-18v12h18zM21 3q0.797 0 1.406 0.609t0.609 1.406l-0.047 12q0 0.797-0.586 1.383t-1.383 0.586h-5.016v2.016h-7.969v-2.016h-5.016q-0.797 0-1.406-0.586t-0.609-1.383v-12q0-0.797 0.609-1.406t1.406-0.609h18z"></path>
</symbol>
<symbol id="icon-now_wallpaper" viewBox="0 0 24 24">
<path d="M3.984 12.984v7.031h7.031v1.969h-7.031q-0.797 0-1.383-0.586t-0.586-1.383v-7.031h1.969zM20.016 20.016v-7.031h1.969v7.031q0 0.797-0.586 1.383t-1.383 0.586h-7.031v-1.969h7.031zM20.016 2.016q0.797 0 1.383 0.586t0.586 1.383v7.031h-1.969v-7.031h-7.031v-1.969h7.031zM17.016 8.484q0 0.609-0.445 1.055t-1.055 0.445-1.055-0.445-0.445-1.055 0.445-1.055 1.055-0.445 1.055 0.445 0.445 1.055zM9.984 12.984l3 3.703 2.016-2.672 3 3.984h-12zM3.984 3.984v7.031h-1.969v-7.031q0-0.797 0.586-1.383t1.383-0.586h7.031v1.969h-7.031z"></path>
</symbol>
<symbol id="icon-screen_lock_portrait" viewBox="0 0 24 24">
<path d="M17.016 18.984v-13.969h-10.031v13.969h10.031zM17.016 0.984q0.797 0 1.383 0.609t0.586 1.406v18q0 0.797-0.586 1.406t-1.383 0.609h-10.031q-0.797 0-1.383-0.609t-0.586-1.406v-18q0-0.797 0.586-1.406t1.383-0.609h10.031zM10.781 9.984v1.031h2.438v-1.031q0-0.469-0.352-0.82t-0.867-0.352-0.867 0.352-0.352 0.82zM9.984 15.984q-0.422 0-0.703-0.281t-0.281-0.703v-3q0-0.422 0.281-0.703t0.703-0.281v-1.031q0-0.844 0.586-1.406t1.43-0.563 1.43 0.563 0.586 1.406v1.031q0.422 0 0.703 0.281t0.281 0.703v3q0 0.422-0.281 0.703t-0.703 0.281h-4.031z"></path>
</symbol>
<symbol id="icon-sd_storage" viewBox="0 0 24 24">
<path d="M18 8.016v-4.031h-2.016v4.031h2.016zM15 8.016v-4.031h-2.016v4.031h2.016zM12 8.016v-4.031h-2.016v4.031h2.016zM18 2.016q0.797 0 1.406 0.586t0.609 1.383v16.031q0 0.797-0.609 1.383t-1.406 0.586h-12q-0.797 0-1.406-0.586t-0.609-1.383l0.047-12 5.953-6h8.016z"></path>
</symbol>
<symbol id="icon-settings_system_daydream" viewBox="0 0 24 24">
<path d="M21 19.031v-14.063h-18v14.063h18zM21 3q0.797 0 1.406 0.609t0.609 1.406v13.969q0 0.797-0.609 1.406t-1.406 0.609h-18q-0.797 0-1.406-0.609t-0.609-1.406v-13.969q0-0.797 0.609-1.406t1.406-0.609h18zM9 15.984q-1.219 0-2.109-0.891t-0.891-2.109q0-1.125 0.773-1.992t1.898-0.961h0.188q0.984-2.016 3.141-2.016 1.313 0 2.297 0.867t1.172 2.133h0.047q1.031 0 1.758 0.727t0.727 1.758-0.727 1.758-1.758 0.727h-6.516z"></path>
</symbol>
<symbol id="icon-add_to_home_screen" viewBox="0 0 24 24">
<path d="M9.984 15v-3.609l-5.578 5.625-1.406-1.406 5.578-5.625h-3.563v-1.969h6.984v6.984h-2.016zM18 1.031q0.797 0 1.406 0.586t0.609 1.383v18q0 0.797-0.609 1.406t-1.406 0.609h-9.984q-0.797 0-1.406-0.609t-0.609-1.406v-3h2.016v0.984h9.984v-13.969h-9.984v0.984h-2.016v-3q0-0.797 0.609-1.406t1.406-0.609z"></path>
</symbol>
<symbol id="icon-mobile_friendly" viewBox="0 0 24 24">
<path d="M7.031 13.453l5.906-5.906 1.266 1.266-7.219 7.172-3.797-3.797 1.266-1.266zM18.984 0.984q0.797 0 1.406 0.609t0.609 1.406v18q0 0.797-0.609 1.406t-1.406 0.609h-9.984q-0.797 0-1.406-0.609t-0.609-1.406v-3h2.016v2.016h9.984v-16.031h-9.984v2.016h-2.016v-3q0-0.797 0.609-1.406t1.406-0.609h9.984z"></path>
</symbol>
<symbol id="icon-signal_cellular_alt" viewBox="0 0 24 24">
<path d="M11.016 9h3v11.016h-3v-11.016zM5.016 14.016h3v6h-3v-6zM17.016 3.984h3v16.031h-3v-16.031z"></path>
</symbol>
<symbol id="icon-attach_file" viewBox="0 0 24 24">
<path d="M16.5 6h1.5v11.484q0 2.297-1.594 3.914t-3.891 1.617-3.914-1.617-1.617-3.914v-12.469q0-1.641 1.195-2.836t2.836-1.195 2.813 1.195 1.172 2.836v10.5q0 1.031-0.727 1.758t-1.758 0.727-1.781-0.727-0.75-1.758v-9.516h1.5v9.516q0 0.422 0.305 0.703t0.727 0.281 0.703-0.281 0.281-0.703v-10.5q0-1.031-0.727-1.781t-1.758-0.75-1.781 0.75-0.75 1.781v12.469q0 1.641 1.195 2.836t2.836 1.195 2.813-1.195 1.172-2.836v-11.484z"></path>
</symbol>
<symbol id="icon-border_color" viewBox="0 0 24 24">
<path d="M0 20.016h24v3.984h-24v-3.984zM20.719 4.031l-1.969 1.969-3.75-3.75 1.969-1.969q0.281-0.281 0.703-0.281t0.703 0.281l2.344 2.344q0.281 0.281 0.281 0.703t-0.281 0.703zM17.766 6.984l-10.031 10.031h-3.75v-3.75l10.031-10.031z"></path>
</symbol>
<symbol id="icon-insert_drive_file" viewBox="0 0 24 24">
<path d="M12.984 9h5.531l-5.531-5.484v5.484zM6 2.016h8.016l6 6v12q0 0.797-0.609 1.383t-1.406 0.586h-12q-0.797 0-1.406-0.586t-0.609-1.383l0.047-16.031q0-0.797 0.586-1.383t1.383-0.586z"></path>
</symbol>
<symbol id="icon-insert_invitation" viewBox="0 0 24 24">
<path d="M18.984 18.984v-10.969h-13.969v10.969h13.969zM15.984 0.984h2.016v2.016h0.984q0.797 0 1.406 0.609t0.609 1.406v13.969q0 0.797-0.609 1.406t-1.406 0.609h-13.969q-0.844 0-1.43-0.586t-0.586-1.43v-13.969q0-0.797 0.586-1.406t1.43-0.609h0.984v-2.016h2.016v2.016h7.969v-2.016zM17.016 12v5.016h-5.016v-5.016h5.016z"></path>
</symbol>
<symbol id="icon-insert_photo" viewBox="0 0 24 24">
<path d="M8.484 13.5l-3.469 4.5h13.969l-4.5-6-3.469 4.5zM21 18.984q0 0.797-0.609 1.406t-1.406 0.609h-13.969q-0.797 0-1.406-0.609t-0.609-1.406v-13.969q0-0.797 0.609-1.406t1.406-0.609h13.969q0.797 0 1.406 0.609t0.609 1.406v13.969z"></path>
</symbol>
<symbol id="icon-cloud_queue" viewBox="0 0 24 24">
<path d="M18.984 18q1.219 0 2.109-0.891t0.891-2.109-0.891-2.109-2.109-0.891h-1.5v-0.516q0-2.297-1.594-3.891t-3.891-1.594q-1.875 0-3.328 1.125t-1.969 2.859h-0.703q-1.641 0-2.813 1.195t-1.172 2.836 1.172 2.813 2.813 1.172h12.984zM19.359 10.031q1.922 0.141 3.281 1.57t1.359 3.398q0 2.063-1.477 3.539t-3.539 1.477h-12.984q-2.484 0-4.242-1.758t-1.758-4.242q0-2.203 1.57-3.961t3.773-1.992q0.984-1.828 2.766-2.953t3.891-1.125q2.531 0 4.711 1.781t2.648 4.266z"></path>
</symbol>
<symbol id="icon-computer" viewBox="0 0 24 24">
<path d="M3.984 6v9.984h16.031v-9.984h-16.031zM20.016 18h3.984v2.016h-24v-2.016h3.984q-0.797 0-1.383-0.609t-0.586-1.406v-9.984q0-0.797 0.586-1.406t1.383-0.609h16.031q0.797 0 1.383 0.609t0.586 1.406v9.984q0 0.797-0.586 1.406t-1.383 0.609z"></path>
</symbol>
<symbol id="icon-desktop_mac" viewBox="0 0 24 24">
<path d="M21 14.016v-10.031h-18v10.031h18zM21 2.016q0.797 0 1.406 0.586t0.609 1.383v12q0 0.797-0.609 1.406t-1.406 0.609h-6.984l1.969 3v0.984h-7.969v-0.984l1.969-3h-6.984q-0.797 0-1.406-0.609t-0.609-1.406v-12q0-0.797 0.609-1.383t1.406-0.586h18z"></path>
</symbol>
<symbol id="icon-desktop_windows" viewBox="0 0 24 24">
<path d="M21 15.984v-12h-18v12h18zM21 2.016q0.797 0 1.406 0.586t0.609 1.383v12q0 0.797-0.609 1.406t-1.406 0.609h-6.984v2.016h1.969v1.969h-7.969v-1.969h1.969v-2.016h-6.984q-0.797 0-1.406-0.609t-0.609-1.406v-12q0-0.797 0.609-1.383t1.406-0.586h18z"></path>
</symbol>
<symbol id="icon-laptop_chromebook" viewBox="0 0 24 24">
<path d="M20.016 15v-9.984h-16.031v9.984h16.031zM14.016 18v-0.984h-4.031v0.984h4.031zM21.984 18h2.016v2.016h-24v-2.016h2.016v-15h19.969v15z"></path>
</symbol>
<symbol id="icon-laptop_mac" viewBox="0 0 24 24">
<path d="M12 18.984q0.422 0 0.703-0.281t0.281-0.703-0.281-0.703-0.703-0.281-0.703 0.281-0.281 0.703 0.281 0.703 0.703 0.281zM3.984 5.016v10.969h16.031v-10.969h-16.031zM20.016 18h3.984q0 0.797-0.609 1.406t-1.406 0.609h-19.969q-0.797 0-1.406-0.609t-0.609-1.406h3.984q-0.797 0-1.383-0.609t-0.586-1.406v-10.969q0-0.797 0.586-1.406t1.383-0.609h16.031q0.797 0 1.383 0.609t0.586 1.406v10.969q0 0.797-0.586 1.406t-1.383 0.609z"></path>
</symbol>
<symbol id="icon-laptop_windows" viewBox="0 0 24 24">
<path d="M3.984 5.016v9.984h16.031v-9.984h-16.031zM20.016 18h3.984v2.016h-24v-2.016h3.984v-0.984q-0.797 0-1.383-0.609t-0.586-1.406v-9.984q0-0.797 0.586-1.406t1.383-0.609h16.031q0.797 0 1.383 0.609t0.586 1.406v9.984q0 0.797-0.586 1.406t-1.383 0.609v0.984z"></path>
</symbol>
<symbol id="icon-mouse" viewBox="0 0 24 24">
<path d="M11.016 1.078v7.922h-7.031q0-3.047 2.039-5.297t4.992-2.625zM3.984 15v-3.984h16.031v3.984q0 3.281-2.367 5.648t-5.648 2.367-5.648-2.367-2.367-5.648zM12.984 1.078q2.953 0.375 4.992 2.625t2.039 5.297h-7.031v-7.922z"></path>
</symbol>
<symbol id="icon-phone_android" viewBox="0 0 24 24">
<path d="M17.25 18v-14.016h-10.5v14.016h10.5zM14.016 21v-0.984h-4.031v0.984h4.031zM15.984 0.984q1.219 0 2.109 0.891t0.891 2.109v16.031q0 1.219-0.891 2.109t-2.109 0.891h-7.969q-1.219 0-2.109-0.891t-0.891-2.109v-16.031q0-1.219 0.891-2.109t2.109-0.891h7.969z"></path>
</symbol>
<symbol id="icon-phone_iphone" viewBox="0 0 24 24">
<path d="M15.984 18v-14.016h-9v14.016h9zM11.484 21.984q0.609 0 1.055-0.445t0.445-1.055-0.445-1.055-1.055-0.445-1.055 0.445-0.445 1.055 0.445 1.055 1.055 0.445zM15.516 0.984q1.031 0 1.758 0.75t0.727 1.781v16.969q0 1.031-0.727 1.781t-1.758 0.75h-8.016q-1.031 0-1.758-0.75t-0.727-1.781v-16.969q0-1.031 0.727-1.781t1.758-0.75h8.016z"></path>
</symbol>
<symbol id="icon-router" viewBox="0 0 24 24">
<path d="M15 18v-2.016h-2.016v2.016h2.016zM11.484 18v-2.016h-1.969v2.016h1.969zM8.016 18v-2.016h-2.016v2.016h2.016zM18.984 12.984q0.797 0 1.406 0.609t0.609 1.406v3.984q0 0.797-0.609 1.406t-1.406 0.609h-13.969q-0.797 0-1.406-0.609t-0.609-1.406v-3.984q0-0.797 0.609-1.406t1.406-0.609h9.984v-3.984h2.016v3.984h1.969zM19.313 6.703l-0.797 0.797q-0.984-0.984-2.531-0.984-1.5 0-2.484 0.984l-0.797-0.797q1.406-1.406 3.281-1.406 1.922 0 3.328 1.406zM20.203 5.906q-1.922-1.688-4.219-1.688-2.25 0-4.172 1.688l-0.797-0.797q2.109-2.109 4.969-2.109 2.906 0 5.016 2.109z"></path>
</symbol>
<symbol id="icon-scanner" viewBox="0 0 24 24">
<path d="M18.984 17.016v-2.016h-9.984v2.016h9.984zM6.984 17.016v-2.016h-1.969v2.016h1.969zM19.781 10.688q0.516 0.141 0.867 0.68t0.352 1.148v5.484q0 0.797-0.609 1.406t-1.406 0.609h-13.969q-0.797 0-1.406-0.609t-0.609-1.406v-3.984q0-0.797 0.609-1.406t1.406-0.609h12.563l-14.063-5.109 0.703-1.875z"></path>
</symbol>
<symbol id="icon-security" viewBox="0 0 24 24">
<path d="M12 0.984l9 4.031v6q0 4.172-2.578 7.617t-6.422 4.383q-3.844-0.938-6.422-4.383t-2.578-7.617v-6zM12 12v8.953q2.766-0.891 4.688-3.352t2.297-5.602h-6.984zM12 12v-8.813l-6.984 3.094v5.719h6.984z"></path>
</symbol>
<symbol id="icon-sim_card" viewBox="0 0 24 24">
<path d="M17.016 15v-3.984h-2.016v3.984h2.016zM12.984 12.984v-1.969h-1.969v1.969h1.969zM12.984 18.984v-3.984h-1.969v3.984h1.969zM9 15v-3.984h-2.016v3.984h2.016zM17.016 18.984v-1.969h-2.016v1.969h2.016zM9 18.984v-1.969h-2.016v1.969h2.016zM19.969 3.984l0.047 16.031q0 0.797-0.609 1.383t-1.406 0.586h-12q-0.797 0-1.406-0.586t-0.609-1.383v-12l6-6h8.016q0.797 0 1.383 0.586t0.586 1.383z"></path>
</symbol>
<symbol id="icon-tablet_mac" viewBox="0 0 24 24">
<path d="M18.984 18.984v-15.984h-15v15.984h15zM11.484 23.016q0.609 0 1.055-0.445t0.445-1.055-0.445-1.055-1.055-0.445-1.055 0.445-0.445 1.055 0.445 1.055 1.055 0.445zM18.516 0q1.031 0 1.758 0.727t0.727 1.758v19.031q0 1.031-0.727 1.758t-1.758 0.727h-14.016q-1.031 0-1.758-0.727t-0.727-1.758v-19.031q0-1.031 0.727-1.758t1.758-0.727h14.016z"></path>
</symbol>
<symbol id="icon-tv" viewBox="0 0 24 24">
<path d="M21 17.016v-12h-18v12h18zM21 3q0.797 0 1.406 0.609t0.609 1.406l-0.047 12q0 0.797-0.586 1.383t-1.383 0.586h-5.016v2.016h-7.969v-2.016h-5.016q-0.797 0-1.406-0.586t-0.609-1.383v-12q0-0.797 0.609-1.406t1.406-0.609h18z"></path>
</symbol>
<symbol id="icon-watch" viewBox="0 0 24 24">
<path d="M6 12q0 2.484 1.758 4.242t4.242 1.758 4.242-1.758 1.758-4.242-1.758-4.242-4.242-1.758-4.242 1.758-1.758 4.242zM20.016 12q0 1.641-0.891 3.469t-2.156 2.813l-0.984 5.719h-7.969l-0.984-5.719q-3.047-2.344-3.047-6.281t3.047-6.281l0.984-5.719h7.969l0.984 5.719q3.047 2.438 3.047 6.281z"></path>
</symbol>
<symbol id="icon-device_hub" viewBox="0 0 24 24">
<path d="M17.016 15.984h3.984v5.016h-5.016v-3.047l-3.984-4.219-3.984 4.219v3.047h-5.016v-5.016h3.984l4.031-3.984v-3.188q-0.891-0.328-1.453-1.078t-0.563-1.734q0-1.219 0.891-2.109t2.109-0.891 2.109 0.891 0.891 2.109q0 0.984-0.563 1.734t-1.453 1.078v3.188z"></path>
</symbol>
<symbol id="icon-devices_other" viewBox="0 0 24 24">
<path d="M21 18v-8.016h-3.984v8.016h3.984zM21.984 8.016q0.375 0 0.703 0.305t0.328 0.68v9.984q0 0.375-0.328 0.703t-0.703 0.328h-6q-0.375 0-0.68-0.328t-0.305-0.703v-9.984q0-0.375 0.305-0.68t0.68-0.305h6zM11.016 17.484q0.609 0 1.055-0.445t0.445-1.055-0.445-1.055-1.055-0.445-1.055 0.445-0.445 1.055 0.445 1.055 1.055 0.445zM12.984 12v1.781q1.031 0.938 1.031 2.203 0 1.313-1.031 2.25v1.781h-3.984v-1.781q-0.984-0.891-0.984-2.25 0-1.313 0.984-2.203v-1.781h3.984zM3 6v12h3.984v2.016h-3.984q-0.797 0-1.406-0.609t-0.609-1.406v-12q0-0.797 0.609-1.406t1.406-0.609h18v2.016h-18z"></path>
</symbol>
<symbol id="icon-camera" viewBox="0 0 24 24">
<path d="M9.844 21.75q0.188-0.328 2.016-3.516t2.813-4.828l3.656 6.328q-1.125 0.938-3 1.594t-3.328 0.656q-1.125 0-2.156-0.234zM2.438 15h9.703l-3.703 6.328q-2.156-0.797-3.727-2.461t-2.273-3.867zM4.641 5.25l5.063 8.766h-7.5q-0.188-1.125-0.188-2.016 0-1.594 0.773-3.563t1.852-3.188zM21.797 9.984q0.188 0.891 0.188 2.016 0 1.594-0.773 3.563t-1.852 3.188l-4.781-8.25-0.281-0.516h7.5zM21.563 9h-9.703l3.703-6.328q2.156 0.797 3.727 2.461t2.273 3.867zM9.422 10.5l-0.094 0.094-3.656-6.328q1.125-0.938 3-1.594t3.328-0.656q1.125 0 2.156 0.234z"></path>
</symbol>
<symbol id="icon-camera_alt" viewBox="0 0 24 24">
<path d="M12 17.016q2.063 0 3.539-1.477t1.477-3.539-1.477-3.539-3.539-1.477-3.539 1.477-1.477 3.539 1.477 3.539 3.539 1.477zM9 2.016h6l1.828 1.969h3.188q0.797 0 1.383 0.609t0.586 1.406v12q0 0.797-0.586 1.406t-1.383 0.609h-16.031q-0.797 0-1.383-0.609t-0.586-1.406v-12q0-0.797 0.586-1.406t1.383-0.609h3.188zM8.813 12q0-1.313 0.938-2.25t2.25-0.938 2.25 0.938 0.938 2.25-0.938 2.25-2.25 0.938-2.25-0.938-0.938-2.25z"></path>
</symbol>
<symbol id="icon-music_note" viewBox="0 0 24 24">
<path d="M12 3h6v3.984h-3.984v10.031q0 1.641-1.195 2.813t-2.836 1.172-2.813-1.172-1.172-2.813 1.172-2.836 2.813-1.195q0.984 0 2.016 0.563v-10.547z"></path>
</symbol>
<symbol id="icon-picture_as_pdf" viewBox="0 0 24 24">
<path d="M14.016 11.484v-3h0.984v3h-0.984zM3.984 6v14.016h14.016v1.969h-14.016q-0.797 0-1.383-0.586t-0.586-1.383v-14.016h1.969zM9 9.516v-1.031h0.984v1.031h-0.984zM20.484 8.484v-1.5h-3v6h1.5v-1.969h1.5v-1.5h-1.5v-1.031h1.5zM16.5 11.484v-3q0-0.609-0.422-1.055t-1.078-0.445h-2.484v6h2.484q0.656 0 1.078-0.445t0.422-1.055zM11.484 9.516v-1.031q0-0.609-0.445-1.055t-1.055-0.445h-2.484v6h1.5v-1.969h0.984q0.609 0 1.055-0.445t0.445-1.055zM20.016 2.016q0.797 0 1.383 0.586t0.586 1.383v12q0 0.797-0.586 1.406t-1.383 0.609h-12q-0.797 0-1.406-0.609t-0.609-1.406v-12q0-0.797 0.609-1.383t1.406-0.586h12z"></path>
</symbol>
<symbol id="icon-view_comfy" viewBox="0 0 24 24">
<path d="M18 5.016h3.984v3.984h-3.984v-3.984zM18 18.984v-3.984h3.984v3.984h-3.984zM12.984 18.984v-3.984h4.031v3.984h-4.031zM8.016 18.984v-3.984h3.984v3.984h-3.984zM3 18.984v-3.984h3.984v3.984h-3.984zM18 14.016v-4.031h3.984v4.031h-3.984zM12.984 5.016h4.031v3.984h-4.031v-3.984zM8.016 9v-3.984h3.984v3.984h-3.984zM12.984 14.016v-4.031h4.031v4.031h-4.031zM8.016 14.016v-4.031h3.984v4.031h-3.984zM3 14.016v-4.031h3.984v4.031h-3.984zM3 9v-3.984h3.984v3.984h-3.984z"></path>
</symbol>
<symbol id="icon-view_compact" viewBox="0 0 24 24">
<path d="M3 5.016h18.984v6h-18.984v-6zM9.984 18.984v-6.984h12v6.984h-12zM3 18.984v-6.984h6v6.984h-6z"></path>
</symbol>
<symbol id="icon-local_cafe" viewBox="0 0 24 24">
<path d="M3.984 18.984h16.031v2.016h-16.031v-2.016zM20.016 8.016v-3h-2.016v3h2.016zM20.016 3q0.844 0 1.406 0.586t0.563 1.43v3q0 0.844-0.563 1.406t-1.406 0.563h-2.016v3q0 1.641-1.172 2.836t-2.813 1.195h-6q-1.641 0-2.836-1.195t-1.195-2.836v-9.984h16.031z"></path>
</symbol>
<symbol id="icon-local_grocery_store" viewBox="0 0 24 24">
<path d="M17.016 18q0.797 0 1.383 0.609t0.586 1.406-0.586 1.383-1.383 0.586-1.406-0.586-0.609-1.383 0.609-1.406 1.406-0.609zM0.984 2.016h3.281l0.938 1.969h14.813q0.422 0 0.703 0.305t0.281 0.727q0 0.047-0.141 0.469l-3.563 6.469q-0.563 1.031-1.734 1.031h-7.453l-0.891 1.641-0.047 0.141q0 0.234 0.234 0.234h11.578v2.016h-12q-0.797 0-1.383-0.609t-0.586-1.406q0-0.469 0.234-0.938l1.359-2.484-3.609-7.594h-2.016v-1.969zM6.984 18q0.797 0 1.406 0.609t0.609 1.406-0.609 1.383-1.406 0.586-1.383-0.586-0.586-1.383 0.586-1.406 1.383-0.609z"></path>
</symbol>
<symbol id="icon-cancel" viewBox="0 0 24 24">
<path d="M17.016 15.609l-3.609-3.609 3.609-3.609-1.406-1.406-3.609 3.609-3.609-3.609-1.406 1.406 3.609 3.609-3.609 3.609 1.406 1.406 3.609-3.609 3.609 3.609zM12 2.016q4.125 0 7.055 2.93t2.93 7.055-2.93 7.055-7.055 2.93-7.055-2.93-2.93-7.055 2.93-7.055 7.055-2.93z"></path>
</symbol>
<symbol id="icon-wifi" viewBox="0 0 24 24">
<path d="M5.016 12.984q2.906-2.859 7.008-2.859t6.961 2.859l-1.969 2.016q-0.844-0.844-2.32-1.453t-2.695-0.609-2.695 0.609-2.32 1.453zM9 17.016q1.266-1.266 3-1.266t3 1.266l-3 3zM0.984 9q4.594-4.547 11.039-4.547t10.992 4.547l-2.016 2.016q-3.75-3.703-9-3.703t-9 3.703z"></path>
</symbol>
<symbol id="icon-notifications" viewBox="0 0 24 24">
<path d="M18 15.984l2.016 2.016v0.984h-16.031v-0.984l2.016-2.016v-4.969q0-2.344 1.195-4.078t3.305-2.25v-0.703q0-0.609 0.422-1.055t1.078-0.445 1.078 0.445 0.422 1.055v0.703q2.109 0.516 3.305 2.25t1.195 4.078v4.969zM12 21.984q-0.844 0-1.43-0.563t-0.586-1.406h4.031q0 0.797-0.609 1.383t-1.406 0.586z"></path>
</symbol>
<symbol id="icon-notifications_none" viewBox="0 0 24 24">
<path d="M15.984 17.016v-6q0-1.922-1.078-3.211t-2.906-1.289-2.906 1.289-1.078 3.211v6h7.969zM18 15.984l2.016 2.016v0.984h-16.031v-0.984l2.016-2.016v-4.969q0-2.344 1.195-4.078t3.305-2.25v-0.703q0-0.609 0.422-1.055t1.078-0.445 1.078 0.445 0.422 1.055v0.703q2.109 0.516 3.305 2.25t1.195 4.078v4.969zM12 21.984q-0.797 0-1.406-0.586t-0.609-1.383h4.031q0 0.797-0.609 1.383t-1.406 0.586z"></path>
</symbol>
<symbol id="icon-notifications_off" viewBox="0 0 24 24">
<path d="M18 14.672l-8.953-9.422q0.141-0.047 0.375-0.164l0.328-0.164h0.047l0.281-0.141q0.047 0 0.188-0.047t0.234-0.047v-0.703q0-0.609 0.422-1.055t1.078-0.445 1.078 0.445 0.422 1.055v0.703q2.109 0.516 3.305 2.25t1.195 4.078v3.656zM12 21.984q-0.844 0-1.43-0.563t-0.586-1.406h4.031q0 0.844-0.586 1.406t-1.43 0.563zM7.828 6.141q1.125 1.172 5.883 6.047t7.289 7.547l-1.266 1.266-2.016-2.016h-13.734v-0.984l2.016-2.016v-5.016q0-1.922 0.797-3.422l-2.813-2.766 1.266-1.313z"></path>
</symbol>
<symbol id="icon-notifications_on" viewBox="0 0 24 24">
<path d="M12 21.984q-0.844 0-1.43-0.586t-0.586-1.383h3.984q0 0.844-0.563 1.406t-1.406 0.563zM18 11.016v4.969l2.016 2.016v0.984h-16.031v-0.984l2.016-2.016v-4.969q0-2.344 1.195-4.078t3.305-2.25v-0.703q0-0.609 0.422-1.055t1.078-0.445 1.078 0.445 0.422 1.055v0.703q2.109 0.516 3.305 2.25t1.195 4.078zM19.969 10.5q-0.094-1.688-1.125-3.563t-2.391-2.859l1.406-1.406q3.891 3 4.125 7.828h-2.016zM7.594 4.078q-1.359 0.984-2.414 2.859t-1.148 3.563h-2.016q0.234-4.828 4.125-7.828z"></path>
</symbol>
<symbol id="icon-person" viewBox="0 0 24 24">
<path d="M12 14.016q2.531 0 5.273 1.102t2.742 2.883v2.016h-16.031v-2.016q0-1.781 2.742-2.883t5.273-1.102zM12 12q-1.641 0-2.813-1.172t-1.172-2.813 1.172-2.836 2.813-1.195 2.813 1.195 1.172 2.836-1.172 2.813-2.813 1.172z"></path>
</symbol>
<symbol id="icon-person_add" viewBox="0 0 24 24">
<path d="M15 14.016q2.531 0 5.273 1.102t2.742 2.883v2.016h-16.031v-2.016q0-1.781 2.742-2.883t5.273-1.102zM6 9.984h3v2.016h-3v3h-2.016v-3h-3v-2.016h3v-3h2.016v3zM15 12q-1.641 0-2.813-1.172t-1.172-2.813 1.172-2.836 2.813-1.195 2.813 1.195 1.172 2.836-1.172 2.813-2.813 1.172z"></path>
</symbol>
<symbol id="icon-person_outline" viewBox="0 0 24 24">
<path d="M12 12.984q1.5 0 3.281 0.422t3.258 1.406 1.477 2.203v3h-16.031v-3q0-1.219 1.477-2.203t3.258-1.406 3.281-0.422zM12 3.984q1.641 0 2.813 1.195t1.172 2.836-1.172 2.813-2.813 1.172-2.813-1.172-1.172-2.813 1.172-2.836 2.813-1.195zM12 14.906q-2.063 0-4.078 0.773t-2.016 1.336v1.078h12.188v-1.078q0-0.563-2.016-1.336t-4.078-0.773zM12 5.906q-0.891 0-1.5 0.609t-0.609 1.5 0.609 1.477 1.5 0.586 1.5-0.586 0.609-1.477-0.609-1.5-1.5-0.609z"></path>
</symbol>
<symbol id="icon-public" viewBox="0 0 24 24">
<path d="M17.906 17.391q2.109-2.25 2.109-5.391 0-2.484-1.383-4.5t-3.633-2.906v0.422q0 0.797-0.609 1.383t-1.406 0.586h-1.969v2.016q0 0.422-0.305 0.703t-0.727 0.281h-1.969v2.016h6q0.422 0 0.703 0.281t0.281 0.703v3h0.984q1.406 0 1.922 1.406zM11.016 19.922v-1.922q-0.797 0-1.406-0.609t-0.609-1.406v-0.984l-4.781-4.781q-0.234 0.938-0.234 1.781 0 3.047 2.039 5.297t4.992 2.625zM12 2.016q4.125 0 7.055 2.93t2.93 7.055-2.93 7.055-7.055 2.93-7.055-2.93-2.93-7.055 2.93-7.055 7.055-2.93z"></path>
</symbol>
<symbol id="icon-thumb_down_alt" viewBox="0 0 24 24">
<path d="M2.156 11.109l2.672-6.141q0.609-0.984 1.734-0.984h8.109q0.984 0 1.664 0.68t0.68 1.664v7.828q0 0.844-0.609 1.453l-6.422 6.375-0.422-0.469q-0.563-0.563-0.891-1.219-0.141-0.328-0.094-0.656l0.938-4.641h-5.531q-0.797 0-1.383-0.609t-0.586-1.406v-1.078q0-0.469 0.141-0.797zM21.984 3.984v11.016h-1.969q-0.422 0-0.727-0.281t-0.305-0.703v-9q0-0.422 0.305-0.727t0.727-0.305h1.969z"></path>
</symbol>
<symbol id="icon-thumb_up_alt" viewBox="0 0 24 24">
<path d="M21.844 12.891l-2.672 6.141q-0.609 0.984-1.734 0.984h-8.109q-0.938 0-1.641-0.703t-0.703-1.641v-7.828q0-0.844 0.609-1.453l6.422-6.375 0.422 0.469q0.563 0.563 0.891 1.219 0.141 0.328 0.094 0.656l-0.938 4.641h5.531q0.797 0 1.383 0.609t0.586 1.406v1.078q0 0.422-0.141 0.797zM2.016 20.016v-11.016h1.969q0.422 0 0.727 0.281t0.305 0.703v9q0 0.422-0.305 0.727t-0.727 0.305h-1.969z"></path>
</symbol>
<symbol id="icon-check_box" viewBox="0 0 24 24">
<path d="M9.984 17.016l9-9-1.406-1.453-7.594 7.594-3.563-3.563-1.406 1.406zM18.984 3q0.844 0 1.43 0.586t0.586 1.43v13.969q0 0.844-0.586 1.43t-1.43 0.586h-13.969q-0.844 0-1.43-0.586t-0.586-1.43v-13.969q0-0.844 0.586-1.43t1.43-0.586h13.969z"></path>
</symbol>
<symbol id="icon-check_box_outline_blank" viewBox="0 0 24 24">
<path d="M18.984 3q0.797 0 1.406 0.609t0.609 1.406v13.969q0 0.797-0.609 1.406t-1.406 0.609h-13.969q-0.797 0-1.406-0.609t-0.609-1.406v-13.969q0-0.797 0.609-1.406t1.406-0.609h13.969zM18.984 5.016h-13.969v13.969h13.969v-13.969z"></path>
</symbol>
<symbol id="icon-account_box" viewBox="0 0 24 24">
<path d="M6 17.016v0.984h12v-0.984q0-1.359-2.063-2.227t-3.938-0.867-3.938 0.867-2.063 2.227zM15 9q0-1.219-0.891-2.109t-2.109-0.891-2.109 0.891-0.891 2.109 0.891 2.109 2.109 0.891 2.109-0.891 0.891-2.109zM3 5.016q0-0.844 0.586-1.43t1.43-0.586h13.969q0.797 0 1.406 0.609t0.609 1.406v13.969q0 0.797-0.609 1.406t-1.406 0.609h-13.969q-0.844 0-1.43-0.586t-0.586-1.43v-13.969z"></path>
</symbol>
<symbol id="icon-account_circle" viewBox="0 0 24 24">
<path d="M12 19.219q1.594 0 3.352-0.938t2.648-2.297q-0.047-1.313-2.109-2.203t-3.891-0.891-3.891 0.867-2.109 2.227q0.891 1.359 2.648 2.297t3.352 0.938zM12 5.016q-1.219 0-2.109 0.891t-0.891 2.109 0.891 2.109 2.109 0.891 2.109-0.891 0.891-2.109-0.891-2.109-2.109-0.891zM12 2.016q4.125 0 7.055 2.93t2.93 7.055-2.93 7.055-7.055 2.93-7.055-2.93-2.93-7.055 2.93-7.055 7.055-2.93z"></path>
</symbol>
<symbol id="icon-bookmark" viewBox="0 0 24 24">
<path d="M17.016 3q0.797 0 1.383 0.609t0.586 1.406v15.984l-6.984-3-6.984 3v-15.984q0-0.797 0.586-1.406t1.383-0.609h10.031z"></path>
</symbol>
<symbol id="icon-bookmark_outline" viewBox="0 0 24 24">
<path d="M17.016 18v-12.984h-10.031v12.984l5.016-2.203zM17.016 3q0.797 0 1.383 0.609t0.586 1.406v15.984l-6.984-3-6.984 3v-15.984q0-0.797 0.586-1.406t1.383-0.609h10.031z"></path>
</symbol>
<symbol id="icon-build" viewBox="0 0 24 24">
<path d="M22.688 18.984q0.328 0.188 0.305 0.633t-0.398 0.773l-2.297 2.297q-0.703 0.703-1.406 0l-9.094-9.094q-1.688 0.703-3.586 0.305t-3.305-1.805q-1.5-1.5-1.875-3.563t0.563-3.844l4.406 4.313 3-3-4.313-4.313q1.781-0.844 3.844-0.516t3.563 1.828q1.406 1.406 1.805 3.305t-0.305 3.586z"></path>
</symbol>
<symbol id="icon-done" viewBox="0 0 24 24">
<path d="M9 16.219l10.594-10.641 1.406 1.406-12 12-5.578-5.578 1.359-1.406z"></path>
</symbol>
<symbol id="icon-favorite" viewBox="0 0 24 24">
<path d="M12 21.328l-1.453-1.313q-2.484-2.25-3.609-3.328t-2.508-2.672-1.898-2.883-0.516-2.648q0-2.297 1.57-3.891t3.914-1.594q2.719 0 4.5 2.109 1.781-2.109 4.5-2.109 2.344 0 3.914 1.594t1.57 3.891q0 1.828-1.219 3.797t-2.648 3.422-4.664 4.359z"></path>
</symbol>
<symbol id="icon-favorite_outline" viewBox="0 0 24 24">
<path d="M12.094 18.563q2.25-2.016 3.328-3.047t2.344-2.438 1.758-2.484 0.492-2.109q0-1.5-1.008-2.484t-2.508-0.984q-1.172 0-2.18 0.656t-1.383 1.688h-1.875q-0.375-1.031-1.383-1.688t-2.18-0.656q-1.5 0-2.508 0.984t-1.008 2.484q0 1.031 0.492 2.109t1.758 2.484 2.344 2.438 3.328 3.047l0.094 0.094zM16.5 3q2.344 0 3.914 1.594t1.57 3.891q0 1.359-0.516 2.648t-1.898 2.883-2.508 2.672-3.609 3.328l-1.453 1.313-1.453-1.266q-3.234-2.906-4.664-4.359t-2.648-3.422-1.219-3.797q0-2.297 1.57-3.891t3.914-1.594q2.719 0 4.5 2.109 1.781-2.109 4.5-2.109z"></path>
</symbol>
<symbol id="icon-help" viewBox="0 0 24 24">
<path d="M15.047 11.25q0.938-0.938 0.938-2.25 0-1.641-1.172-2.813t-2.813-1.172-2.813 1.172-1.172 2.813h1.969q0-0.797 0.609-1.406t1.406-0.609 1.406 0.609 0.609 1.406-0.609 1.406l-1.219 1.266q-1.172 1.266-1.172 2.813v0.516h1.969q0-1.547 1.172-2.813zM12.984 18.984v-1.969h-1.969v1.969h1.969zM12 2.016q4.125 0 7.055 2.93t2.93 7.055-2.93 7.055-7.055 2.93-7.055-2.93-2.93-7.055 2.93-7.055 7.055-2.93z"></path>
</symbol>
<symbol id="icon-highlight_remove" viewBox="0 0 24 24">
<path d="M12 20.016q3.281 0 5.648-2.367t2.367-5.648-2.367-5.648-5.648-2.367-5.648 2.367-2.367 5.648 2.367 5.648 5.648 2.367zM12 2.016q4.125 0 7.055 2.93t2.93 7.055-2.93 7.055-7.055 2.93-7.055-2.93-2.93-7.055 2.93-7.055 7.055-2.93zM14.578 8.016l1.406 1.406-2.578 2.578 2.578 2.578-1.406 1.406-2.578-2.578-2.578 2.578-1.406-1.406 2.578-2.578-2.578-2.578 1.406-1.406 2.578 2.578z"></path>
</symbol>
<symbol id="icon-hourglass_empty" viewBox="0 0 24 24">
<path d="M12 11.484l3.984-3.984v-3.516h-7.969v3.516zM15.984 16.5l-3.984-3.984-3.984 3.984v3.516h7.969v-3.516zM6 2.016h12v6l-3.984 3.984 3.984 3.984v6h-12v-6l3.984-3.984-3.984-3.984v-6z"></path>
</symbol>
<symbol id="icon-hourglass_full" viewBox="0 0 24 24">
<path d="M6 2.016h12v6l-3.984 3.984 3.984 3.984v6h-12v-6l3.984-3.984-3.984-3.984v-6z"></path>
</symbol>
<symbol id="icon-https" viewBox="0 0 24 24">
<path d="M15.094 8.016v-2.016q0-1.266-0.914-2.18t-2.18-0.914-2.18 0.914-0.914 2.18v2.016h6.188zM12 17.016q0.797 0 1.406-0.609t0.609-1.406-0.609-1.406-1.406-0.609-1.406 0.609-0.609 1.406 0.609 1.406 1.406 0.609zM18 8.016q0.797 0 1.406 0.586t0.609 1.383v10.031q0 0.797-0.609 1.383t-1.406 0.586h-12q-0.797 0-1.406-0.586t-0.609-1.383v-10.031q0-0.797 0.609-1.383t1.406-0.586h0.984v-2.016q0-2.063 1.477-3.539t3.539-1.477 3.539 1.477 1.477 3.539v2.016h0.984z"></path>
</symbol>
<symbol id="icon-info" viewBox="0 0 24 24">
<path d="M12.984 9v-2.016h-1.969v2.016h1.969zM12.984 17.016v-6h-1.969v6h1.969zM12 2.016q4.125 0 7.055 2.93t2.93 7.055-2.93 7.055-7.055 2.93-7.055-2.93-2.93-7.055 2.93-7.055 7.055-2.93z"></path>
</symbol>
<symbol id="icon-info_outline" viewBox="0 0 24 24">
<path d="M11.016 9v-2.016h1.969v2.016h-1.969zM12 20.016q3.281 0 5.648-2.367t2.367-5.648-2.367-5.648-5.648-2.367-5.648 2.367-2.367 5.648 2.367 5.648 5.648 2.367zM12 2.016q4.125 0 7.055 2.93t2.93 7.055-2.93 7.055-7.055 2.93-7.055-2.93-2.93-7.055 2.93-7.055 7.055-2.93zM11.016 17.016v-6h1.969v6h-1.969z"></path>
</symbol>
<symbol id="icon-label" viewBox="0 0 24 24">
<path d="M17.625 5.859l4.359 6.141-4.359 6.141q-0.609 0.844-1.641 0.844h-10.969q-0.797 0-1.406-0.586t-0.609-1.383v-10.031q0-0.797 0.609-1.383t1.406-0.586h10.969q1.031 0 1.641 0.844z"></path>
</symbol>
<symbol id="icon-label_outline" viewBox="0 0 24 24">
<path d="M15.984 17.016l3.563-5.016-3.563-5.016h-10.969v10.031h10.969zM17.625 5.859l4.359 6.141-4.359 6.141q-0.609 0.844-1.641 0.844h-10.969q-0.797 0-1.406-0.586t-0.609-1.383v-10.031q0-0.797 0.609-1.383t1.406-0.586h10.969q1.031 0 1.641 0.844z"></path>
</symbol>
<symbol id="icon-language" viewBox="0 0 24 24">
<path d="M16.359 14.016h3.375q0.281-1.313 0.281-2.016t-0.281-2.016h-3.375q0.141 0.984 0.141 2.016t-0.141 2.016zM14.578 19.547q1.172-0.375 2.438-1.43t1.922-2.133h-2.953q-0.469 1.875-1.406 3.563zM14.344 14.016q0.141-0.984 0.141-2.016t-0.141-2.016h-4.688q-0.141 0.984-0.141 2.016t0.141 2.016h4.688zM12 19.969q1.313-1.922 1.922-3.984h-3.844q0.609 2.063 1.922 3.984zM8.016 8.016q0.563-2.016 1.406-3.563-1.172 0.375-2.461 1.43t-1.898 2.133h2.953zM5.063 15.984q0.609 1.078 1.898 2.133t2.461 1.43q-0.938-1.688-1.406-3.563h-2.953zM4.266 14.016h3.375q-0.141-0.984-0.141-2.016t0.141-2.016h-3.375q-0.281 1.313-0.281 2.016t0.281 2.016zM12 4.031q-1.313 1.922-1.922 3.984h3.844q-0.609-2.063-1.922-3.984zM18.938 8.016q-0.656-1.078-1.922-2.133t-2.438-1.43q0.844 1.547 1.406 3.563h2.953zM12 2.016q4.125 0 7.055 2.93t2.93 7.055-2.93 7.055-7.055 2.93-7.055-2.93-2.93-7.055 2.93-7.055 7.055-2.93z"></path>
</symbol>
<symbol id="icon-lock_open" viewBox="0 0 24 24">
<path d="M18 20.016v-10.031h-12v10.031h12zM18 8.016q0.797 0 1.406 0.586t0.609 1.383v10.031q0 0.797-0.609 1.383t-1.406 0.586h-12q-0.797 0-1.406-0.586t-0.609-1.383v-10.031q0-0.797 0.609-1.383t1.406-0.586h9.094v-2.016q0-1.266-0.914-2.18t-2.18-0.914-2.18 0.914-0.914 2.18h-1.922q0-2.063 1.477-3.539t3.539-1.477 3.539 1.477 1.477 3.539v2.016h0.984zM12 17.016q-0.797 0-1.406-0.609t-0.609-1.406 0.609-1.406 1.406-0.609 1.406 0.609 0.609 1.406-0.609 1.406-1.406 0.609z"></path>
</symbol>
<symbol id="icon-lock_outline" viewBox="0 0 24 24">
<path d="M18 20.016v-10.031h-12v10.031h12zM8.906 6v2.016h6.188v-2.016q0-1.266-0.914-2.18t-2.18-0.914-2.18 0.914-0.914 2.18zM18 8.016q0.797 0 1.406 0.586t0.609 1.383v10.031q0 0.797-0.609 1.383t-1.406 0.586h-12q-0.797 0-1.406-0.586t-0.609-1.383v-10.031q0-0.797 0.609-1.383t1.406-0.586h0.984v-2.016q0-2.063 1.477-3.539t3.539-1.477 3.539 1.477 1.477 3.539v2.016h0.984zM12 17.016q-0.797 0-1.406-0.609t-0.609-1.406 0.609-1.406 1.406-0.609 1.406 0.609 0.609 1.406-0.609 1.406-1.406 0.609z"></path>
</symbol>
<symbol id="icon-search" viewBox="0 0 24 24">
<path d="M9.516 14.016q1.875 0 3.188-1.313t1.313-3.188-1.313-3.188-3.188-1.313-3.188 1.313-1.313 3.188 1.313 3.188 3.188 1.313zM15.516 14.016l4.969 4.969-1.5 1.5-4.969-4.969v-0.797l-0.281-0.281q-1.781 1.547-4.219 1.547-2.719 0-4.617-1.875t-1.898-4.594 1.898-4.617 4.617-1.898 4.594 1.898 1.875 4.617q0 0.984-0.469 2.227t-1.078 1.992l0.281 0.281h0.797z"></path>
</symbol>
<symbol id="icon-reorder" viewBox="0 0 24 24">
<path d="M3 5.016h18v1.969h-18v-1.969zM3 11.016v-2.016h18v2.016h-18zM3 18.984v-1.969h18v1.969h-18zM3 15v-2.016h18v2.016h-18z"></path>
</symbol>
<symbol id="icon-zoom_in" viewBox="0 0 24 24">
<path d="M12 9.984h-2.016v2.016h-0.984v-2.016h-2.016v-0.984h2.016v-2.016h0.984v2.016h2.016v0.984zM9.516 14.016q1.875 0 3.188-1.313t1.313-3.188-1.313-3.188-3.188-1.313-3.188 1.313-1.313 3.188 1.313 3.188 3.188 1.313zM15.516 14.016l4.969 4.969-1.5 1.5-4.969-4.969v-0.797l-0.281-0.281q-1.781 1.547-4.219 1.547-2.719 0-4.617-1.875t-1.898-4.594 1.898-4.617 4.617-1.898 4.594 1.898 1.875 4.617q0 0.984-0.469 2.227t-1.078 1.992l0.281 0.281h0.797z"></path>
</symbol>
<symbol id="icon-zoom_out" viewBox="0 0 24 24">
<path d="M6.984 9h5.016v0.984h-5.016v-0.984zM9.516 14.016q1.875 0 3.188-1.313t1.313-3.188-1.313-3.188-3.188-1.313-3.188 1.313-1.313 3.188 1.313 3.188 3.188 1.313zM15.516 14.016l4.969 4.969-1.5 1.5-4.969-4.969v-0.797l-0.281-0.281q-1.781 1.547-4.219 1.547-2.719 0-4.617-1.875t-1.898-4.594 1.898-4.617 4.617-1.898 4.594 1.898 1.875 4.617q0 0.984-0.469 2.227t-1.078 1.992l0.281 0.281h0.797z"></path>
</symbol>
<symbol id="icon-http" viewBox="0 0 24 24">
<path d="M21.516 11.484v-0.984h-2.016v0.984h2.016zM21.516 9q0.609 0 1.055 0.445t0.445 1.055v0.984q0 0.609-0.445 1.055t-1.055 0.445h-2.016v2.016h-1.5v-6h3.516zM12.516 10.5v-1.5h4.5v1.5h-1.5v4.5h-1.5v-4.5h-1.5zM6.984 10.5v-1.5h4.5v1.5h-1.5v4.5h-1.5v-4.5h-1.5zM4.5 11.016v-2.016h1.5v6h-1.5v-2.484h-2.016v2.484h-1.5v-6h1.5v2.016h2.016z"></path>
</symbol>
<symbol id="icon-flight_land" viewBox="0 0 24 24">
<path d="M14.016 14.438q-3.844-1.078-9.656-2.578l-1.594-0.469v-5.156l1.453 0.375 0.938 2.344 4.969 1.313v-8.25l1.922 0.516 2.766 9 5.297 1.406q0.609 0.188 0.914 0.727t0.164 1.148q-0.188 0.609-0.703 0.891t-1.125 0.141zM2.484 18.984h19.031v2.016h-19.031v-2.016z"></path>
</symbol>
<symbol id="icon-flight_takeoff" viewBox="0 0 24 24">
<path d="M22.078 9.656q0.141 0.609-0.164 1.125t-0.914 0.703q-5.813 1.547-9.656 2.578l-5.297 1.406-1.594 0.469-2.625-4.5 1.453-0.375 1.969 1.5 4.969-1.313-4.125-7.172 1.922-0.516 6.891 6.422 5.344-1.406q0.609-0.188 1.148 0.141t0.68 0.938zM2.484 18.984h19.031v2.016h-19.031v-2.016z"></path>
</symbol>
<symbol id="icon-fingerprint" viewBox="0 0 24 24">
<path d="M14.906 21.984h-0.141q-2.156-0.563-3.703-2.109-0.891-0.891-1.523-2.414t-0.633-2.789q0-1.219 0.891-2.086t2.156-0.867 2.18 0.867 0.914 2.086q0 0.797 0.586 1.359t1.477 0.563 1.5-0.563 0.609-1.359q0-2.813-2.133-4.828t-5.133-2.016q-2.156 0-3.938 1.102t-2.672 2.93q-0.563 1.172-0.563 2.813 0 1.875 0.656 3.609 0.141 0.469-0.328 0.609t-0.609-0.281q-0.75-1.922-0.75-3.938 0-1.828 0.703-3.234 0.984-2.109 3.023-3.375t4.477-1.266q3.422 0 5.836 2.32t2.414 5.555q0 1.219-0.914 2.063t-2.18 0.844-2.156-0.844-0.891-2.063q0-0.797-0.609-1.383t-1.5-0.586-1.477 0.586-0.586 1.383q0 2.625 1.875 4.5 1.313 1.313 3.281 1.828 0.422 0.047 0.328 0.609-0.094 0.375-0.469 0.375zM12.422 14.672q0 1.734 1.289 3t3.211 1.266q0.094 0 0.422-0.047t0.539-0.047 0.422 0.070 0.258 0.305q0.094 0.516-0.422 0.609-0.563 0.094-1.219 0.094-1.875 0-3.094-0.891-2.391-1.641-2.391-4.359 0-0.516 0.516-0.516 0.469 0 0.469 0.516zM9.75 21.797q-0.188 0-0.328-0.141-1.266-1.266-2.016-2.672-1.078-1.875-1.078-4.313 0-2.203 1.664-3.797t4.008-1.594 4.008 1.594 1.664 3.797q0 0.469-0.516 0.469t-0.516-0.469q0-1.828-1.359-3.117t-3.281-1.289-3.281 1.289-1.359 3.117q0 2.25 0.891 3.844 0.609 1.078 1.875 2.438 0.375 0.328 0 0.703-0.141 0.141-0.375 0.141zM3.516 9.703q-0.516 0-0.516-0.469 0-0.094 0.094-0.281 1.5-2.156 3.75-3.281 2.344-1.219 5.156-1.219t5.156 1.219q2.297 1.125 3.75 3.234 0.094 0.188 0.094 0.281 0 0.328-0.375 0.469t-0.563-0.188q-1.406-1.922-3.375-2.906-2.156-1.078-4.688-1.102t-4.688 1.102q-2.109 1.078-3.422 2.953-0.141 0.188-0.375 0.188zM17.813 4.453q-0.188 0-0.234-0.047-2.766-1.406-5.578-1.406-3.047 0-5.578 1.406-0.234 0.141-0.469 0t-0.234-0.422q0-0.328 0.234-0.469 2.719-1.5 6.047-1.5 3.047 0 6.047 1.5 0.422 0.234 0.188 0.656-0.188 0.281-0.422 0.281z"></path>
</symbol>
<symbol id="icon-done_outline" viewBox="0 0 24 24">
<path d="M19.781 2.203l4.219 4.219-15.563 15.563-8.438-8.438 4.219-4.219 4.219 4.219zM19.781 5.016l-11.344 11.344-4.219-4.172-1.406 1.359 5.625 5.625 12.75-12.75z"></path>
</symbol>
<symbol id="icon-drag_indicator" viewBox="0 0 24 24">
<path d="M15 15.984q0.797 0 1.406 0.609t0.609 1.406-0.609 1.406-1.406 0.609-1.406-0.609-0.609-1.406 0.609-1.406 1.406-0.609zM15 9.984q0.797 0 1.406 0.609t0.609 1.406-0.609 1.406-1.406 0.609-1.406-0.609-0.609-1.406 0.609-1.406 1.406-0.609zM15 8.016q-0.797 0-1.406-0.609t-0.609-1.406 0.609-1.406 1.406-0.609 1.406 0.609 0.609 1.406-0.609 1.406-1.406 0.609zM9 3.984q0.797 0 1.406 0.609t0.609 1.406-0.609 1.406-1.406 0.609-1.406-0.609-0.609-1.406 0.609-1.406 1.406-0.609zM9 9.984q0.797 0 1.406 0.609t0.609 1.406-0.609 1.406-1.406 0.609-1.406-0.609-0.609-1.406 0.609-1.406 1.406-0.609zM11.016 18q0 0.797-0.609 1.406t-1.406 0.609-1.406-0.609-0.609-1.406 0.609-1.406 1.406-0.609 1.406 0.609 0.609 1.406z"></path>
</symbol>
<symbol id="icon-emoji_food_beverage" viewBox="0 0 24 24">
<path d="M3.984 18.984h16.031v2.016h-16.031v-2.016zM20.016 8.016v-3h-2.016v3h2.016zM20.016 3q0.844 0 1.406 0.586t0.563 1.43v3q0 0.844-0.563 1.406t-1.406 0.563h-2.016v3q0 1.641-1.172 2.836t-2.813 1.195h-6q-1.641 0-2.836-1.195t-1.195-2.836v-9.984h4.031v2.391l-1.828 1.453q-0.188 0.141-0.188 0.375v4.266q0 0.516 0.516 0.516h3.984q0.516 0 0.516-0.516v-4.266q0-0.234-0.188-0.375l-1.828-1.453v-2.391h11.016z"></path>
</symbol>
<symbol id="icon-home_repair_service" viewBox="0 0 24 24">
<path d="M18 15.984h-2.016v-0.984h-7.969v0.984h-2.016v-0.984h-3.984v5.016h19.969v-5.016h-3.984v0.984zM20.016 8.016h-3v-2.016q0-0.844-0.586-1.43t-1.43-0.586h-6q-0.844 0-1.43 0.586t-0.586 1.43v2.016h-3q-0.797 0-1.383 0.586t-0.586 1.383v4.031h3.984v-2.016h2.016v2.016h7.969v-2.016h2.016v2.016h3.984v-4.031q0-0.797-0.586-1.383t-1.383-0.586zM15 8.016h-6v-2.016h6v2.016z"></path>
</symbol>
<symbol id="icon-hourglass_bottom" viewBox="0 0 24 24">
<path d="M18 21.984v-6l-3.984-3.984 3.984-4.031v-5.953h-12v6l3.984 3.984-3.984 3.984v6h12zM8.016 7.5v-3.516h7.969v3.516l-3.984 3.984z"></path>
</symbol>
<symbol id="icon-hourglass_disabled" viewBox="0 0 24 24">
<path d="M8.016 3.984h7.969v3.516l-2.813 2.859 1.219 1.219 3.609-3.563v-6h-12v1.172l2.016 1.969v-1.172zM2.109 2.109l-1.406 1.406 8.906 8.906-3.609 3.563v6h12v-1.172l2.484 2.484 1.406-1.406zM15.984 20.016h-7.969v-3.516l2.813-2.859 5.156 5.203v1.172z"></path>
</symbol>
<symbol id="icon-hourglass_top" viewBox="0 0 24 24">
<path d="M6 2.016v6l3.984 3.984-3.984 4.031v5.953h12v-6l-3.984-3.984 3.984-3.984v-6h-12zM15.984 16.5v3.516h-7.969v-3.516l3.984-3.984z"></path>
</symbol>
<symbol id="icon-location_pin" viewBox="0 0 24 24">
<path d="M12 2.016v0q-1.453 0-2.719 0.539t-2.227 1.5-1.5 2.227-0.539 2.719q0 1.313 0.352 2.531t1.055 2.297q0.703 1.172 1.57 2.203t1.57 2.203q0.375 0.563 0.633 1.102t0.539 1.148q0.141 0.281 0.281 0.633t0.375 0.609 0.609 0.258v0q0.375 0 0.609-0.258t0.375-0.609 0.281-0.633q0.281-0.609 0.539-1.148t0.633-1.102q0.703-1.125 1.57-2.18t1.57-2.227q0.703-1.078 1.055-2.297t0.352-2.531q0-1.453-0.539-2.719t-1.5-2.227-2.227-1.5-2.719-0.539zM12 11.766q-1.031 0-1.758-0.75t-0.727-1.781 0.727-1.758 1.758-0.727 1.758 0.727 0.727 1.758-0.727 1.781-1.758 0.75z"></path>
</symbol>
<symbol id="icon-sports_bar" viewBox="0 0 24 24">
<path d="M18.984 9h-1.547q0.281-0.422 0.422-0.938t0.141-1.078q0-1.078-0.539-1.992t-1.453-1.453-1.992-0.539q-0.469 0-0.984 0.141-0.609-0.516-1.383-0.82t-1.664-0.305q-1.406 0-2.555 0.75t-1.711 1.969q-1.172 0.375-1.945 1.406t-0.773 2.344q0 1.406 0.844 2.461t2.156 1.43v8.625h11.016v-2.016h1.969q0.844 0 1.43-0.586t0.586-1.383v-6q0-0.844-0.586-1.43t-1.43-0.586zM6.984 10.5q-0.797 0-1.383-0.586t-0.586-1.43q0-0.609 0.375-1.125t0.984-0.75l0.797-0.281 0.375-0.75q0.328-0.703 0.984-1.125t1.453-0.422q0.609 0 1.055 0.211t0.68 0.445l0.797 0.609 0.422-0.141t1.031-0.141q0.844 0 1.43 0.586t0.586 1.383h-3q-0.984 0-1.688 0.352t-1.242 0.891-0.984 1.055-0.938 0.867-1.148 0.352zM18.984 17.016h-1.969v-6h1.969v6z"></path>
</symbol>
<symbol id="icon-wash" viewBox="0 0 24 24">
<path d="M18.516 8.016q1.031 0 1.758-0.75t0.727-1.781q0-0.609-0.375-1.383t-0.867-1.477-0.867-1.172l-0.375-0.469-0.375 0.469t-0.891 1.172-0.891 1.477-0.375 1.383q0 1.031 0.75 1.781t1.781 0.75zM13.5 9q0.609 0 1.055-0.445t0.445-1.055q0-0.328-0.234-0.75t-0.516-0.82-0.516-0.656l-0.234-0.258-0.234 0.258t-0.516 0.656-0.516 0.82-0.234 0.75q0 0.609 0.445 1.055t1.055 0.445zM9.141 5.016l-7.219 6.797q-0.938 0.844-0.938 2.156v6.047q0 0.797 0.422 1.477t1.102 1.102 1.477 0.422h13.781q0.516 0 0.867-0.375t0.352-0.891-0.352-0.891-0.867-0.375h-5.766v-0.984h7.734q0.516 0 0.891-0.375t0.375-0.891-0.375-0.867-0.891-0.352h-7.734v-1.031h8.766q0.516 0 0.867-0.352t0.352-0.867-0.352-0.891-0.867-0.375h-8.766v-0.984h6.75q0.516 0 0.891-0.375t0.375-0.891-0.375-0.891-0.891-0.375h-9.891q0.328-0.563 0.68-1.148t0.586-1.008l0.234-0.422q0.141-0.281 0.141-0.563 0-0.375-0.281-0.703l-0.164-0.164t-0.375-0.398-0.375-0.398l-0.164-0.164z"></path>
</symbol>
<symbol id="icon-sanitizer" viewBox="0 0 24 24">
<path d="M15.516 6.516q0-0.328 0.211-0.75t0.516-0.82 0.539-0.68l0.234-0.281 0.211 0.281t0.516 0.68 0.539 0.82 0.234 0.75q0 0.609-0.445 1.055t-1.055 0.445q-0.656 0-1.078-0.445t-0.422-1.055zM19.5 15q1.031 0 1.758-0.727t0.727-1.758q0-0.656-0.375-1.43t-0.867-1.477-0.867-1.148l-0.375-0.445-0.375 0.445t-0.867 1.148-0.867 1.477-0.375 1.43q0 1.031 0.727 1.758t1.758 0.727zM12.984 14.016h-1.969v-2.016h-2.016v2.016h-2.016v1.969h2.016v2.016h2.016v-2.016h1.969v-1.969zM15.984 12v9.984h-12v-9.984q0-1.5 0.656-2.742t1.805-2.086 2.555-1.078v-2.109h-2.016v-1.969h6q0.844 0 1.617 0.258t1.383 0.727l-1.406 1.453q-0.375-0.234-0.773-0.352t-0.82-0.117h-1.969v2.109q1.406 0.234 2.531 1.078t1.781 2.086 0.656 2.742z"></path>
</symbol>
</defs>
</svg>
